<svg xmlns="http://www.w3.org/2000/svg" version="1.1" xmlns:xlink="http://www.w3.org/1999/xlink" xmlns:svgjs="http://svgjs.com/svgjs" width="1000" height="1000"><rect width="1000" height="1000" rx="500" ry="500" fill="#181d24"></rect><g transform="matrix(18.51851851851852,0,0,18.51851851851852,256.7104593592661,255.42660372124777)"><svg xmlns="http://www.w3.org/2000/svg" version="1.1" xmlns:xlink="http://www.w3.org/1999/xlink" xmlns:svgjs="http://svgjs.com/svgjs" width="26" height="27"><svg width="26" height="27" viewBox="0 0 26 27" fill="none" xmlns="http://www.w3.org/2000/svg">
<path d="M7.99276 25.4955C8.40113 25.5436 8.86956 25.5796 9.39805 25.6036C9.95055 25.6277 10.5511 25.6397 11.1997 25.6397C12.0164 25.6397 12.8212 25.6036 13.6139 25.5316C14.4307 25.4355 15.1994 25.2553 15.92 24.9911C16.6647 24.7028 17.3493 24.3064 17.9739 23.802C18.6225 23.2735 19.199 22.5889 19.7035 21.7481C20.4722 20.4509 21.0007 19.1297 21.2889 17.7845C21.6012 16.4152 21.7574 14.9258 21.7574 13.3164C21.7574 11.4186 21.5772 9.70105 21.2169 8.16364C20.8566 6.60221 20.256 5.281 19.4152 4.20001C18.5985 3.09499 17.5055 2.24221 16.1362 1.64166C14.767 1.04111 13.0734 0.740836 11.0556 0.740836C10.455 0.740836 9.90251 0.752847 9.39805 0.776868C8.91761 0.80089 8.44918 0.824912 7.99276 0.848936V25.4955ZM0.389784 25.4955H4.38945V0.848936H0.389784V0.344473H7.09193C7.42824 0.344473 7.76455 0.344473 8.10086 0.344473C8.43716 0.32045 8.77347 0.296427 9.10978 0.272406C9.44609 0.272406 9.7824 0.272406 10.1187 0.272406C10.455 0.248384 10.7913 0.236373 11.1276 0.236373C11.8483 0.236373 12.4849 0.248384 13.0374 0.272406C13.6139 0.296427 14.1424 0.344472 14.6228 0.416538C15.1273 0.464583 15.5957 0.54866 16.0281 0.668771C16.4845 0.764857 16.965 0.896978 17.4694 1.06513C18.9348 1.54557 20.1959 2.19417 21.2529 3.01092C22.3339 3.80364 23.2107 4.72849 23.8833 5.78546C24.58 6.84243 25.0844 7.99549 25.3967 9.24463C25.733 10.4938 25.9012 11.803 25.9012 13.1722C25.9012 14.7577 25.709 16.187 25.3247 17.4602C24.9403 18.7093 24.4118 19.8263 23.7392 20.8112C23.0666 21.7721 22.2739 22.6129 21.361 23.3336C20.4722 24.0302 19.5113 24.5947 18.4784 25.0271C17.9018 25.2914 17.3493 25.4955 16.8209 25.6397C16.3164 25.7838 15.7879 25.8919 15.2354 25.964C14.7069 26.036 14.1184 26.0841 13.4698 26.1081C12.8212 26.1321 12.0765 26.1441 11.2357 26.1441C10.8754 26.1441 10.491 26.1321 10.0827 26.1081C9.6743 26.1081 9.26592 26.0961 8.85755 26.0721C8.44918 26.048 8.0408 26.024 7.63243 26C7.24807 26 6.87573 26 6.5154 26H0.389784V25.4955Z" fill="#F9F0EC"></path>
</svg></svg></g></svg>