<svg width="276" height="100" viewBox="0 0 276 100" fill="none" xmlns="http://www.w3.org/2000/svg">
<path d="M132.538 25.2592C132.946 25.3072 133.415 25.3432 133.943 25.3673C134.496 25.3913 135.096 25.4033 135.745 25.4033C136.562 25.4033 137.367 25.3673 138.159 25.2952C138.976 25.1991 139.745 25.0189 140.465 24.7547C141.21 24.4664 141.895 24.0701 142.519 23.5656C143.168 23.0371 143.744 22.3525 144.249 21.5117C145.018 20.2145 145.546 18.8933 145.834 17.5481C146.147 16.1788 146.303 14.6895 146.303 13.08C146.303 11.1823 146.123 9.46468 145.762 7.92727C145.402 6.36584 144.801 5.04463 143.961 3.96364C143.144 2.85862 142.051 2.00584 140.682 1.40529C139.312 0.804738 137.619 0.504463 135.601 0.504463C135 0.504463 134.448 0.516473 133.943 0.540495C133.463 0.564517 132.995 0.588539 132.538 0.612562V25.2592ZM124.935 25.2592H128.935V0.612562H124.935V0.1081H131.637C131.974 0.1081 132.31 0.1081 132.646 0.1081C132.983 0.0840768 133.319 0.0600544 133.655 0.0360327C133.991 0.0360327 134.328 0.0360327 134.664 0.0360327C135 0.012011 135.337 0 135.673 0C136.394 0 137.03 0.012011 137.583 0.0360327C138.159 0.0600544 138.688 0.108099 139.168 0.180165C139.673 0.22821 140.141 0.312288 140.573 0.432398C141.03 0.528485 141.51 0.660605 142.015 0.82876C143.48 1.3092 144.741 1.9578 145.798 2.77455C146.879 3.56727 147.756 4.49212 148.429 5.54909C149.125 6.60606 149.63 7.75912 149.942 9.00826C150.278 10.2574 150.447 11.5666 150.447 12.9359C150.447 14.5213 150.254 15.9506 149.87 17.2238C149.486 18.4729 148.957 19.59 148.285 20.5749C147.612 21.5357 146.819 22.3765 145.906 23.0972C145.018 23.7938 144.057 24.3583 143.024 24.7907C142.447 25.055 141.895 25.2592 141.366 25.4033C140.862 25.5474 140.333 25.6555 139.781 25.7276C139.252 25.7997 138.664 25.8477 138.015 25.8717C137.367 25.8957 136.622 25.9078 135.781 25.9078C135.421 25.9078 135.036 25.8957 134.628 25.8717C134.22 25.8717 133.811 25.8597 133.403 25.8357C132.995 25.8117 132.586 25.7876 132.178 25.7636C131.793 25.7636 131.421 25.7636 131.061 25.7636H124.935V25.2592Z" fill="#F9F0EC"/>
<path d="M188.015 62.049V50.1252H190.534L200.211 59.7657H200.247V50.1252H201.878V62.049H200.193L189.665 51.5568H189.646V62.049H188.015Z" fill="#F9F0EC"/>
<path d="M175.302 62.2664C170.264 62.2664 167.727 59.7295 167.727 56.0327C167.727 52.6078 170.282 49.9078 175.302 49.9078C180.321 49.9078 182.876 52.6078 182.876 56.0327C182.876 59.5483 180.484 62.2664 175.302 62.2664ZM175.302 60.7805C179.307 60.7805 181.173 58.7509 181.173 56.0327C181.173 53.4233 179.18 51.3937 175.302 51.3937C171.424 51.3937 169.43 53.4233 169.43 56.0327C169.43 58.8959 171.406 60.7805 175.302 60.7805Z" fill="#F9F0EC"/>
<path d="M156.119 62.2664C150.212 62.2664 149.559 59.6026 149.559 58.0442H151.154C151.154 59.2946 151.788 60.7805 156.119 60.7805C160.468 60.7805 161.266 59.7113 161.266 58.4972C161.266 57.7905 160.849 57.3375 160.015 57.12C159.073 56.8663 157.025 56.8301 155.576 56.7576C154.035 56.6851 151.951 56.5582 150.937 56.1052C150.049 55.7065 149.487 54.8367 149.487 53.7495C149.487 51.6655 151.571 49.9078 156.029 49.9078C161.356 49.9078 162.389 51.883 162.389 54.0213H160.795C160.795 52.4447 159.816 51.3937 156.029 51.3937C152.712 51.3937 151.19 52.2635 151.19 53.6226C151.19 54.3293 151.571 54.7099 152.223 54.9455C153.057 55.2535 155.231 55.326 156.59 55.3804C158.221 55.4529 160.142 55.5253 161.229 55.9059C162.335 56.2864 162.969 57.2287 162.969 58.3885C162.969 60.1463 161.936 62.2664 156.119 62.2664Z" fill="#F9F0EC"/>
<path d="M142.492 62.049V50.1252H144.196V62.049H142.492Z" fill="#F9F0EC"/>
<path d="M135.61 62.049L133.907 59.2221H124.774L123.07 62.049H121.204L128.452 50.1252H130.373L137.622 62.049H135.61ZM125.571 57.8811H133.109L129.358 51.6474H129.322L125.571 57.8811Z" fill="#F9F0EC"/>
<path d="M100.29 62.049V50.1252H103.135L108.354 60.0919H108.372L113.573 50.1252H116.382V62.049H114.679V51.3393H114.66L108.97 62.049H107.684L101.957 51.3393H101.921V62.049H100.29Z" fill="#F9F0EC"/>
<path d="M73.5035 62.049V50.1252H79.1935C84.8111 50.1252 86.442 53.0246 86.442 56.0871C86.442 59.8382 84.5393 62.049 79.6828 62.049H73.5035ZM75.2069 60.563H79.6466C83.2889 60.563 84.7386 59.0771 84.7386 56.0871C84.7386 53.6226 83.5426 51.6112 79.1935 51.6112H75.2069V60.563Z" fill="#F9F0EC"/>
<path fill-rule="evenodd" clip-rule="evenodd" d="M-9.51308e-06 77.0859L27.0677 77.0859L27.0677 77.3566L-9.53674e-06 77.3565L-9.51308e-06 77.0859Z" fill="url(#paint0_linear_2258_425)"/>
<path d="M243.079 81.0368L241.896 79.1348H235.633L234.45 81.0368H233.603L238.37 73.4056H239.217L243.983 81.0368H243.079ZM236.016 78.5201H241.513L238.776 74.1131H238.753L236.016 78.5201Z" fill="#F9F0EC"/>
<path d="M220.412 81.0368V73.4056H221.676L225.411 80.1554H225.434L229.157 73.4056H230.409V81.0368H229.655V73.9623H229.644L225.701 81.0368H225.109L221.154 73.9623H221.143V81.0368H220.412Z" fill="#F9F0EC"/>
<path d="M212.206 81.176C208.993 81.176 207.404 79.5639 207.404 77.1864C207.404 74.9829 209.005 73.2664 212.206 73.2664C215.407 73.2664 217.007 74.9829 217.007 77.1864C217.007 79.4479 215.511 81.176 212.206 81.176ZM212.206 80.5033C215.001 80.5033 216.242 79.0884 216.242 77.1864C216.242 75.354 214.908 73.9391 212.206 73.9391C209.503 73.9391 208.17 75.354 208.17 77.1864C208.17 79.1812 209.492 80.5033 212.206 80.5033Z" fill="#F9F0EC"/>
<path d="M196.031 81.0368V73.4056H200.763C203.117 73.4056 204.08 74.2638 204.08 75.5859C204.08 76.4326 203.558 77.198 202.503 77.3836V77.4068C203.709 77.6155 204.045 78.439 204.045 79.4016V81.0368H203.28V79.4016C203.28 78.5317 202.897 77.7779 201.355 77.7779H196.785V81.0368H196.031ZM196.785 77.1516H201.076C202.688 77.1516 203.361 76.5138 203.361 75.6671C203.361 74.6929 202.63 74.0783 200.659 74.0783H196.785V77.1516Z" fill="#F9F0EC"/>
<path d="M183.816 78.0098V77.4995H186.994V78.0098H183.816Z" fill="#F9F0EC"/>
<path d="M170.309 81.176C167.097 81.176 165.508 79.5639 165.508 77.1864C165.508 74.9829 167.108 73.2664 170.309 73.2664C173.51 73.2664 175.111 74.9829 175.111 77.1864C175.111 79.4479 173.615 81.176 170.309 81.176ZM170.309 80.5033C173.104 80.5033 174.345 79.0884 174.345 77.1864C174.345 75.354 173.012 73.9391 170.309 73.9391C167.607 73.9391 166.273 75.354 166.273 77.1864C166.273 79.1812 167.596 80.5033 170.309 80.5033Z" fill="#F9F0EC"/>
<path d="M153.342 81.0368V73.4056H154.479L161.345 80.0046H161.368V73.4056H162.098V81.0368H161.345L154.084 74.0435H154.073V81.0368H153.342Z" fill="#F9F0EC"/>
<path d="M149.238 81.0368L148.055 79.1348H141.793L140.61 81.0368H139.763L144.53 73.4056H145.376L150.143 81.0368H149.238ZM142.175 78.5201H147.673L144.935 74.1131H144.912L142.175 78.5201Z" fill="#F9F0EC"/>
<path d="M130.774 81.0368V73.4056H131.527V80.3642H137.094V81.0368H130.774Z" fill="#F9F0EC"/>
<path d="M126.235 81.0368V73.4056H127V81.0368H126.235Z" fill="#F9F0EC"/>
<path d="M112.463 81.0368V73.4056H113.728L117.462 80.1554H117.485L121.208 73.4056H122.461V81.0368H121.707V73.9623H121.695L117.752 81.0368H117.16L113.206 73.9623H113.194V81.0368H112.463Z" fill="#F9F0EC"/>
<path d="M100.249 78.0098V77.4995H103.426V78.0098H100.249Z" fill="#F9F0EC"/>
<path d="M90.4089 81.0368V73.4056H91.1743V81.0368H90.4089Z" fill="#F9F0EC"/>
<path d="M80.8396 81.0368V73.4056H81.5934V80.3642H87.1603V81.0368H80.8396Z" fill="#F9F0EC"/>
<path d="M72.6332 81.176C69.4207 81.176 67.8318 79.5639 67.8318 77.1864C67.8318 74.9829 69.4323 73.2664 72.6332 73.2664C75.8342 73.2664 77.4346 74.9829 77.4346 77.1864C77.4346 79.4479 75.9386 81.176 72.6332 81.176ZM72.6332 80.5033C75.4283 80.5033 76.6692 79.0884 76.6692 77.1864C76.6692 75.354 75.3355 73.9391 72.6332 73.9391C69.931 73.9391 68.5973 75.354 68.5973 77.1864C68.5973 79.1812 69.9194 80.5033 72.6332 80.5033Z" fill="#F9F0EC"/>
<path d="M56.9232 81.0368V73.4056H61.4463C63.6266 73.4056 64.7516 74.2986 64.7516 75.9339C64.7516 77.5459 63.6614 78.4274 61.5043 78.4274H57.6771V81.0368H56.9232ZM57.6771 77.8127H61.3999C63.1279 77.8127 63.9977 77.2096 63.9977 75.9455C63.9977 74.7277 63.1859 74.0783 61.3419 74.0783H57.6771V77.8127Z" fill="#F9F0EC"/>
<path d="M52.8192 81.0368L51.6363 79.1348H45.3736L44.1906 81.0368H43.344L48.1106 73.4056H48.9572L53.7238 81.0368H52.8192ZM45.7563 78.5201H51.2535L48.5165 74.1131H48.4933L45.7563 78.5201Z" fill="#F9F0EC"/>
<path d="M31.3986 81.0368V73.4056H32.5351L39.4009 80.0046H39.4241V73.4056H40.1547V81.0368H39.4009L32.1408 74.0435H32.1292V81.0368H31.3986Z" fill="#F9F0EC"/>
<path fill-rule="evenodd" clip-rule="evenodd" d="M275.382 77.3565H248.314V77.0859H275.382V77.3565Z" fill="url(#paint1_linear_2258_425)"/>
<path opacity="0.6" d="M171.771 99.0325V94.263H172.242V98.6121H175.721V99.0325H171.771Z" fill="#F9F0EC"/>
<path opacity="0.6" d="M166.382 99.0325V94.263H170.703V94.6834H166.854V96.4375H169.978V96.8289H166.854V98.6121H170.775V99.0325H166.382Z" fill="#F9F0EC"/>
<path opacity="0.6" d="M162.731 99.0325V94.6834H160.426V94.263H165.514V94.6834H163.209V99.0325H162.731Z" fill="#F9F0EC"/>
<path opacity="0.6" d="M157.207 99.1195C155.199 99.1195 154.206 98.1119 154.206 96.626C154.206 95.2488 155.206 94.176 157.207 94.176C159.208 94.176 160.208 95.2488 160.208 96.626C160.208 98.0394 159.273 99.1195 157.207 99.1195ZM157.207 98.699C158.954 98.699 159.729 97.8147 159.729 96.626C159.729 95.4807 158.896 94.5964 157.207 94.5964C155.518 94.5964 154.685 95.4807 154.685 96.626C154.685 97.8727 155.511 98.699 157.207 98.699Z" fill="#F9F0EC"/>
<path opacity="0.6" d="M147.605 99.0325V94.263H148.076V96.3433H152.686V94.263H153.164V99.0325H152.686V96.7347H148.076V99.0325H147.605Z" fill="#F9F0EC"/>
<path opacity="0.6" d="M139.744 99.0325V94.263H144.064V94.6834H140.215V96.4375H143.339V96.8289H140.215V98.6121H144.137V99.0325H139.744Z" fill="#F9F0EC"/>
<path opacity="0.6" d="M135.883 99.1195C134.201 99.1195 133.208 98.4019 133.208 96.8869V94.263H133.679V96.8362C133.679 98.0974 134.477 98.699 135.883 98.699C137.296 98.699 138.094 98.0974 138.094 96.8362V94.263H138.543V96.8869C138.543 98.4019 137.572 99.1195 135.883 99.1195Z" fill="#F9F0EC"/>
<path opacity="0.6" d="M129.203 99.1195C127.188 99.1195 126.202 98.1119 126.202 96.626C126.202 95.2488 127.195 94.176 129.203 94.176C131.196 94.176 132.204 95.2488 132.204 96.5752C132.204 97.6408 131.732 98.4381 130.522 98.7498V98.7643C131.008 98.7498 131.747 98.728 132.182 98.699V99.1195H129.203ZM129.203 98.699C130.935 98.699 131.725 97.7785 131.725 96.626C131.725 95.4807 130.892 94.5964 129.203 94.5964C127.514 94.5964 126.68 95.4807 126.68 96.626C126.68 97.8727 127.506 98.699 129.203 98.699Z" fill="#F9F0EC"/>
<path opacity="0.6" d="M124.655 99.0325V94.263H125.134V99.0325H124.655Z" fill="#F9F0EC"/>
<path opacity="0.6" d="M120.982 99.0325V94.6834H118.677V94.263H123.765V94.6834H121.46V99.0325H120.982Z" fill="#F9F0EC"/>
<path opacity="0.6" d="M115.192 99.1195C113.511 99.1195 112.518 98.4019 112.518 96.8869V94.263H112.989V96.8362C112.989 98.0974 113.786 98.699 115.192 98.699C116.606 98.699 117.403 98.0974 117.403 96.8362V94.263H117.853V96.8869C117.853 98.4019 116.881 99.1195 115.192 99.1195Z" fill="#F9F0EC"/>
<path opacity="0.6" d="M108.512 99.1195C106.504 99.1195 105.511 98.1119 105.511 96.626C105.511 95.2488 106.512 94.176 108.512 94.176C110.513 94.176 111.513 95.2488 111.513 96.626C111.513 98.0394 110.578 99.1195 108.512 99.1195ZM108.512 98.699C110.259 98.699 111.035 97.8147 111.035 96.626C111.035 95.4807 110.201 94.5964 108.512 94.5964C106.823 94.5964 105.99 95.4807 105.99 96.626C105.99 97.8727 106.816 98.699 108.512 98.699Z" fill="#F9F0EC"/>
<path opacity="0.6" d="M99.6603 99.0325V94.263H102.589C103.937 94.263 104.408 94.8211 104.408 95.5025C104.408 95.9809 104.14 96.4013 103.604 96.5317V96.539C104.307 96.6405 104.669 97.1116 104.669 97.6263C104.669 98.4598 104.147 99.0325 102.915 99.0325H99.6603ZM100.131 96.3795H102.9C103.633 96.3795 103.98 96.0026 103.98 95.5605C103.98 95.0965 103.647 94.6834 102.552 94.6834H100.131V96.3795ZM100.131 98.6121H102.799C103.828 98.6121 104.22 98.1917 104.22 97.59C104.22 97.1479 103.799 96.7637 102.958 96.7637H100.131V98.6121Z" fill="#F9F0EC"/>
<defs>
<linearGradient id="paint0_linear_2258_425" x1="27.0677" y1="76.7212" x2="-6.26631e-06" y2="76.7212" gradientUnits="userSpaceOnUse">
<stop stop-color="white"/>
<stop offset="1" stop-color="white" stop-opacity="0"/>
</linearGradient>
<linearGradient id="paint1_linear_2258_425" x1="248.314" y1="77.7212" x2="275.382" y2="77.7212" gradientUnits="userSpaceOnUse">
<stop stop-color="white"/>
<stop offset="1" stop-color="white" stop-opacity="0"/>
</linearGradient>
</defs>
</svg>
