<svg width="296" height="106" viewBox="0 0 296 106" fill="none" xmlns="http://www.w3.org/2000/svg">
<path d="M235.867 30.5331C235.867 31.8021 234.817 32.8524 233.548 32.8524C232.279 32.8524 231.229 31.8021 231.229 30.5331C231.229 29.2641 232.279 28.2139 233.548 28.2139C234.817 28.2139 235.867 29.2641 235.867 30.5331Z" fill="#F9F0EC"/>
<path d="M229.554 16.7926C229.554 22.7439 227.06 26.5947 224.609 28.6514C222.64 30.3143 219.489 32.2397 215.288 32.4585C213.669 32.546 212.75 32.546 212.094 32.546C211.438 32.546 210.956 32.546 210.344 32.5023C208.637 32.4585 207.105 32.371 206.318 32.371H198.572V31.7583H203.43V1.82692H198.572V1.21429H206.974C207.324 1.21429 210.825 1.08301 212.488 1.08301C224.04 1.08301 229.554 8.08451 229.554 16.7926ZM207.806 1.82692V31.7583C208.856 31.8459 210.212 31.9334 211.656 31.9334C214.982 31.9334 217.433 31.4083 219.052 30.3143C222.334 28.1701 224.522 23.6629 224.522 16.9677C224.522 6.64045 220.496 1.69564 211.35 1.69564C210.3 1.69564 209.337 1.78316 207.806 1.82692Z" fill="#F9F0EC"/>
<path d="M159.077 31.7585L170.892 0.426758H171.943L183.845 31.7585H187.74V32.3711H174.262V31.7585H179.119L174.524 19.5934H164.372L159.778 31.7585H164.635V32.3711H155.227V31.7585H159.077ZM169.448 6.24676L164.635 18.9807H174.262L169.448 6.24676Z" fill="#F9F0EC"/>
<path d="M147.919 2.13337C148.75 2.13337 148.838 1.95834 149.232 1.21443H149.844V9.13488H149.319C148.444 4.01503 145.293 1.03939 141.049 1.03939C137.242 1.03939 133.828 3.05232 133.828 7.03443C133.828 9.70375 135.491 11.2353 137.854 12.198C139.78 12.9857 141.793 13.5546 143.324 14.0359C145.293 14.6486 147 15.0862 148.619 15.8738C151.026 17.0553 152.908 19.112 152.908 22.7003C152.908 28.2577 148.663 33.0275 141.661 33.0275C135.885 33.0275 134.747 31.4084 132.647 31.4084C131.815 31.4084 131.64 31.671 131.334 32.3711H130.678V22.9628H131.159C133.041 31.4522 137.154 32.4149 141.661 32.4149C147.744 32.4149 149.538 28.5203 149.538 25.3696C149.538 21.6938 146.956 19.8997 143.718 18.8495C142.055 18.3244 140.261 17.843 138.511 17.2741C134.704 16.0051 131.465 14.2547 131.465 9.61623C131.465 4.23383 135.491 0.426758 141.049 0.426758C144.987 0.426758 146.387 2.13337 147.919 2.13337Z" fill="#F9F0EC"/>
<path d="M100.081 31.7585L111.896 0.426758H112.947L124.849 31.7585H128.744V32.3711H115.266V31.7585H120.123L115.528 19.5934H105.376L100.781 31.7585H105.639V32.3711H96.2305V31.7585H100.081ZM110.452 6.24676L105.639 18.9807H115.266L110.452 6.24676Z" fill="#F9F0EC"/>
<path d="M92.8162 2.13337C93.7352 2.13337 94.0853 1.95834 94.7416 1.21443H95.398V9.96631H94.9167C93.4726 3.48992 90.3219 1.03939 85.2459 1.03939C78.7257 1.03939 75.0499 5.37157 75.0499 16.7053C75.0499 27.2075 77.763 32.4149 85.2896 32.4149C92.5974 32.4149 94.304 28.0389 95.5293 23.0504H96.0107V32.3711H95.3543C94.6104 31.5397 94.0853 31.4522 93.4289 31.4522C91.8535 31.4522 89.1842 33.0275 85.2896 33.0275C81.2637 33.0275 77.9818 31.4522 75.3562 29.0454C72.0305 25.9822 70.0176 21.5188 70.0176 16.8803C70.0176 12.4606 71.5929 8.566 74.5248 5.32781C77.588 1.95834 81.7889 0.426758 85.6397 0.426758C89.1842 0.426758 91.1534 2.13337 92.8162 2.13337Z" fill="#F9F0EC"/>
<path opacity="0.6" d="M169.023 59.9168C165.628 59.9168 165.247 58.3622 165.247 57.4526H165.903C165.903 58.2247 166.273 59.3034 169.023 59.3034C171.762 59.3034 172.27 58.5102 172.27 57.7276C172.27 57.2728 172.005 56.9661 171.487 56.8181C170.905 56.6595 169.679 56.6277 168.811 56.5854C167.944 56.5537 166.643 56.4797 166.051 56.2258C165.533 55.9932 165.205 55.5173 165.205 54.9039C165.205 53.7088 166.411 52.7041 168.97 52.7041C172.016 52.7041 172.619 53.8569 172.619 55.1048H171.963C171.963 54.1001 171.392 53.3175 168.97 53.3175C166.876 53.3175 165.903 53.9732 165.903 54.851C165.903 55.3057 166.146 55.5807 166.548 55.7394C167.066 55.9297 168.388 55.9826 169.182 56.0143C170.123 56.0461 171.318 56.0884 171.952 56.2999C172.598 56.5114 172.968 57.0402 172.968 57.6959C172.968 58.7006 172.365 59.9168 169.023 59.9168Z" fill="#F9F0EC"/>
<path opacity="0.6" d="M158.547 59.7899V52.8311H159.234V59.1765H164.311V59.7899H158.547Z" fill="#F9F0EC"/>
<path opacity="0.6" d="M150.684 59.7899V52.8311H156.987V53.4445H151.371V56.0038H155.929V56.5749H151.371V59.1765H157.093V59.7899H150.684Z" fill="#F9F0EC"/>
<path opacity="0.6" d="M145.357 59.7899V53.4445H141.994V52.8311H149.418V53.4445H146.055V59.7899H145.357Z" fill="#F9F0EC"/>
<path opacity="0.6" d="M137.296 59.9168C134.367 59.9168 132.918 58.4468 132.918 56.2787C132.918 54.2693 134.377 52.7041 137.296 52.7041C140.215 52.7041 141.675 54.2693 141.675 56.2787C141.675 58.341 140.31 59.9168 137.296 59.9168ZM137.296 59.3034C139.845 59.3034 140.977 58.0132 140.977 56.2787C140.977 54.6077 139.761 53.3175 137.296 53.3175C134.832 53.3175 133.616 54.6077 133.616 56.2787C133.616 58.0978 134.822 59.3034 137.296 59.3034Z" fill="#F9F0EC"/>
<path opacity="0.6" d="M123.287 59.7899V52.8311H123.975V55.8663H130.701V52.8311H131.399V59.7899H130.701V56.4374H123.975V59.7899H123.287Z" fill="#F9F0EC"/>
<path d="M203.482 99.7074V94.8047H204.295L206.694 99.1411H206.709L209.1 94.8047H209.905V99.7074H209.421V95.1623H209.413L206.88 99.7074H206.5L203.959 95.1623H203.952V99.7074H203.482Z" fill="#F9F0EC"/>
<path d="M199.329 99.7969C197.265 99.7969 196.244 98.7612 196.244 97.2338C196.244 95.8181 197.272 94.7153 199.329 94.7153C201.385 94.7153 202.414 95.8181 202.414 97.2338C202.414 98.6867 201.452 99.7969 199.329 99.7969ZM199.329 99.3647C201.125 99.3647 201.922 98.4557 201.922 97.2338C201.922 96.0565 201.065 95.1475 199.329 95.1475C197.593 95.1475 196.736 96.0565 196.736 97.2338C196.736 98.5153 197.585 99.3647 199.329 99.3647Z" fill="#F9F0EC"/>
<path d="M192.658 99.7969C190.475 99.7969 189.686 98.5153 189.686 97.2636C189.686 95.8479 190.706 94.7153 192.614 94.7153C194.626 94.7153 195.341 95.8702 195.341 96.6153V96.6675H194.879V96.6377C194.879 96.0491 194.275 95.1475 192.629 95.1475C191.034 95.1475 190.177 96.0267 190.177 97.2636C190.177 98.329 190.87 99.3647 192.658 99.3647C194.201 99.3647 194.916 98.6047 194.916 97.882V97.8522H195.378V97.8969C195.378 98.7761 194.544 99.7969 192.658 99.7969Z" fill="#F9F0EC"/>
<path d="M187.783 99.7074V98.9102H188.32V99.7074H187.783Z" fill="#F9F0EC"/>
<path d="M183.75 99.7969C181.359 99.7969 181.09 98.7016 181.09 98.0608H181.552C181.552 98.6047 181.813 99.3647 183.75 99.3647C185.68 99.3647 186.038 98.8059 186.038 98.2545C186.038 97.9341 185.852 97.7181 185.486 97.6138C185.077 97.502 184.212 97.4796 183.601 97.4498C182.99 97.4275 182.074 97.3753 181.657 97.1965C181.292 97.0326 181.061 96.6973 181.061 96.2651C181.061 95.4232 181.91 94.7153 183.713 94.7153C185.859 94.7153 186.284 95.5275 186.284 96.4067H185.822C185.822 95.6989 185.419 95.1475 183.713 95.1475C182.238 95.1475 181.552 95.6094 181.552 96.2279C181.552 96.5483 181.724 96.742 182.007 96.8538C182.372 96.9879 183.303 97.0251 183.862 97.0475C184.525 97.0698 185.367 97.0996 185.814 97.2487C186.269 97.3977 186.53 97.7702 186.53 98.2322C186.53 98.94 186.105 99.7969 183.75 99.7969Z" fill="#F9F0EC"/>
<path d="M176.369 99.7074V94.8047H176.853V99.2753H180.43V99.7074H176.369Z" fill="#F9F0EC"/>
<path d="M170.832 99.7074V94.8047H175.273V95.2368H171.316V97.04H174.528V97.4423H171.316V99.2753H175.347V99.7074H170.832Z" fill="#F9F0EC"/>
<path d="M167.078 99.7074V95.2368H164.709V94.8047H169.94V95.2368H167.57V99.7074H167.078Z" fill="#F9F0EC"/>
<path d="M161.399 99.7969C159.335 99.7969 158.314 98.7612 158.314 97.2338C158.314 95.8181 159.343 94.7153 161.399 94.7153C163.456 94.7153 164.484 95.8181 164.484 97.2338C164.484 98.6867 163.523 99.7969 161.399 99.7969ZM161.399 99.3647C163.195 99.3647 163.992 98.4557 163.992 97.2338C163.992 96.0565 163.135 95.1475 161.399 95.1475C159.663 95.1475 158.806 96.0565 158.806 97.2338C158.806 98.5153 159.656 99.3647 161.399 99.3647Z" fill="#F9F0EC"/>
<path d="M151.529 99.7074V94.8047H152.014V96.9431H156.752V94.8047H157.244V99.7074H156.752V97.3455H152.014V99.7074H151.529Z" fill="#F9F0EC"/>
<path d="M145.211 99.7074V94.8047H147.498C149.749 94.8047 150.456 95.9521 150.456 97.256C150.456 98.8058 149.674 99.7074 147.7 99.7074H145.211ZM145.695 99.2753H147.692C149.316 99.2753 149.965 98.5823 149.965 97.256C149.965 96.131 149.383 95.2368 147.498 95.2368H145.695V99.2753Z" fill="#F9F0EC"/>
<path d="M143.693 99.7074L142.933 98.4855H138.909L138.149 99.7074H137.605L140.668 94.8047H141.212L144.274 99.7074H143.693ZM139.155 98.0906H142.687L140.929 95.2592H140.914L139.155 98.0906Z" fill="#F9F0EC"/>
<path d="M134.293 99.7969C131.902 99.7969 131.633 98.7016 131.633 98.0608H132.095C132.095 98.6047 132.356 99.3647 134.293 99.3647C136.223 99.3647 136.581 98.8059 136.581 98.2545C136.581 97.9341 136.394 97.7181 136.029 97.6138C135.62 97.502 134.755 97.4796 134.144 97.4498C133.533 97.4275 132.617 97.3753 132.2 97.1965C131.834 97.0326 131.604 96.6973 131.604 96.2651C131.604 95.4232 132.453 94.7153 134.256 94.7153C136.402 94.7153 136.827 95.5275 136.827 96.4067H136.365C136.365 95.6989 135.962 95.1475 134.256 95.1475C132.781 95.1475 132.095 95.6094 132.095 96.2279C132.095 96.5483 132.267 96.742 132.55 96.8538C132.915 96.9879 133.846 97.0251 134.405 97.0475C135.068 97.0698 135.91 97.0996 136.357 97.2487C136.812 97.3977 137.073 97.7702 137.073 98.2322C137.073 98.94 136.648 99.7969 134.293 99.7969Z" fill="#F9F0EC"/>
<path d="M130.482 99.7074L129.722 98.4855H125.698L124.938 99.7074H124.395L127.457 94.8047H128.001L131.063 99.7074H130.482ZM125.944 98.0906H129.476L127.718 95.2592H127.703L125.944 98.0906Z" fill="#F9F0EC"/>
<path d="M121.25 99.7969C119.067 99.7969 118.277 98.5153 118.277 97.2636C118.277 95.8479 119.298 94.7153 121.206 94.7153C123.217 94.7153 123.933 95.8702 123.933 96.6153V96.6675H123.471V96.6377C123.471 96.0491 122.867 95.1475 121.22 95.1475C119.626 95.1475 118.769 96.0267 118.769 97.2636C118.769 98.329 119.462 99.3647 121.25 99.3647C122.793 99.3647 123.508 98.6047 123.508 97.882V97.8522H123.97V97.8969C123.97 98.7761 123.135 99.7969 121.25 99.7969Z" fill="#F9F0EC"/>
<path d="M116.375 99.7074V98.9102H116.911V99.7074H116.375Z" fill="#F9F0EC"/>
<path d="M108.539 99.7074L106.125 94.8047H106.669L108.807 99.1337H108.822L110.782 94.909H111.259L113.196 99.1337H113.211L115.342 94.8047H115.856L113.442 99.7074H112.928L111.013 95.5572H110.998L109.061 99.7074H108.539Z" fill="#F9F0EC"/>
<path d="M98.3204 99.7074L95.9062 94.8047H96.4502L98.5886 99.1337H98.6035L100.563 94.909H101.04L102.977 99.1337H102.992L105.123 94.8047H105.637L103.223 99.7074H102.709L100.794 95.5572H100.779L98.8419 99.7074H98.3204Z" fill="#F9F0EC"/>
<path d="M88.1036 99.7074L85.6895 94.8047H86.2334L88.3718 99.1337H88.3867L90.3463 94.909H90.8232L92.7604 99.1337H92.7753L94.9063 94.8047H95.4204L93.0063 99.7074H92.4922L90.5773 95.5572H90.5624L88.6251 99.7074H88.1036Z" fill="#F9F0EC"/>
<path d="M46.416 78.3086L6.92326 78.3086" stroke="url(#paint0_linear_2421_3139)" stroke-width="0.394928"/>
<path d="M241.628 82.4245L239.949 79.7249H231.06L229.381 82.4245H228.18L234.945 71.5933H236.147L242.912 82.4245H241.628ZM231.604 78.8525H239.406L235.521 72.5974H235.488L231.604 78.8525Z" fill="#F9F0EC"/>
<path d="M222.51 82.4245V71.5933H223.596V82.4245H222.51Z" fill="#F9F0EC"/>
<path d="M211.613 82.6218C206.79 82.6218 205.045 79.7906 205.045 77.0251C205.045 73.8976 207.3 71.3955 211.514 71.3955C215.959 71.3955 217.539 73.9469 217.539 75.593V75.7083H216.518V75.6424C216.518 74.342 215.185 72.3502 211.547 72.3502C208.024 72.3502 206.131 74.2926 206.131 77.0251C206.131 79.379 207.662 81.6671 211.613 81.6671C215.02 81.6671 216.6 79.9881 216.6 78.3914V78.3255H217.621V78.4243C217.621 80.3667 215.777 82.6218 211.613 82.6218Z" fill="#F9F0EC"/>
<path d="M187.775 82.4245V71.5933H189.389L199.133 80.9595H199.166V71.5933H200.203V82.4245H199.133L188.829 72.4986H188.812V82.4245H187.775Z" fill="#F9F0EC"/>
<path d="M181.952 82.4245L180.273 79.7249H171.385L169.706 82.4245H168.504L175.269 71.5933H176.471L183.236 82.4245H181.952ZM171.928 78.8525H179.73L175.845 72.5974H175.813L171.928 78.8525Z" fill="#F9F0EC"/>
<path d="M158.72 82.6218C153.436 82.6218 152.843 80.2021 152.843 78.7865H153.864C153.864 79.9881 154.44 81.6671 158.72 81.6671C162.983 81.6671 163.773 80.4325 163.773 79.2144C163.773 78.5066 163.362 78.0293 162.555 77.7988C161.65 77.5519 159.74 77.5025 158.391 77.4367C157.041 77.3873 155.016 77.2721 154.094 76.877C153.288 76.5148 152.777 75.7741 152.777 74.8194C152.777 72.9593 154.654 71.3955 158.637 71.3955C163.378 71.3955 164.316 73.1897 164.316 75.1321H163.296C163.296 73.5683 162.407 72.3502 158.637 72.3502C155.378 72.3502 153.864 73.3708 153.864 74.7371C153.864 75.4449 154.242 75.8729 154.868 76.1198C155.674 76.4161 157.732 76.4984 158.967 76.5478C160.432 76.5972 162.292 76.663 163.279 76.9922C164.284 77.3214 164.86 78.1445 164.86 79.1651C164.86 80.7288 163.921 82.6218 158.72 82.6218Z" fill="#F9F0EC"/>
<path d="M143.902 78.1281V77.4038H148.413V78.1281H143.902Z" fill="#F9F0EC"/>
<path d="M138.02 82.4245V71.5933H139.106V82.4245H138.02Z" fill="#F9F0EC"/>
<path d="M124.438 82.4245V71.5933H125.507V81.4698H133.409V82.4245H124.438Z" fill="#F9F0EC"/>
<path d="M112.789 82.6218C108.23 82.6218 105.975 80.3338 105.975 76.9593C105.975 73.8317 108.246 71.3955 112.789 71.3955C117.333 71.3955 119.604 73.8317 119.604 76.9593C119.604 80.1692 117.481 82.6218 112.789 82.6218ZM112.789 81.6671C116.757 81.6671 118.518 79.6589 118.518 76.9593C118.518 74.3585 116.625 72.3502 112.789 72.3502C108.954 72.3502 107.061 74.3585 107.061 76.9593C107.061 79.7906 108.938 81.6671 112.789 81.6671Z" fill="#F9F0EC"/>
<path d="M90.4922 82.4245V71.5933H96.9119C100.007 71.5933 101.603 72.8608 101.603 75.1817C101.603 77.4698 100.056 78.7208 96.9942 78.7208H91.5621V82.4245H90.4922ZM91.5621 77.8484H96.8461C99.2988 77.8484 100.533 76.9924 100.533 75.1982C100.533 73.4698 99.3811 72.548 96.7638 72.548H91.5621V77.8484Z" fill="#F9F0EC"/>
<path d="M84.6673 82.4245L82.9883 79.7249H74.0994L72.4204 82.4245H71.2188L77.9842 71.5933H79.1858L85.9513 82.4245H84.6673ZM74.6426 78.8525H82.4451L78.5603 72.5974H78.5274L74.6426 78.8525Z" fill="#F9F0EC"/>
<path d="M54.2637 82.4245V71.5933H55.8768L65.6217 80.9595H65.6546V71.5933H66.6917V82.4245H65.6217L55.3172 72.4986H55.3007V82.4245H54.2637Z" fill="#F9F0EC"/>
<path d="M250 78.3086H289.493" stroke="url(#paint1_linear_2421_3139)" stroke-width="0.394928"/>
<defs>
<linearGradient id="paint0_linear_2421_3139" x1="46.416" y1="77.8086" x2="6.92326" y2="77.8086" gradientUnits="userSpaceOnUse">
<stop stop-color="white"/>
<stop offset="1" stop-color="white" stop-opacity="0"/>
</linearGradient>
<linearGradient id="paint1_linear_2421_3139" x1="250" y1="78.8086" x2="289.493" y2="78.8086" gradientUnits="userSpaceOnUse">
<stop stop-color="white"/>
<stop offset="1" stop-color="white" stop-opacity="0"/>
</linearGradient>
</defs>
</svg>
