<svg width="182" height="106" viewBox="0 0 182 106" fill="none" xmlns="http://www.w3.org/2000/svg">
<path d="M178.99 30.5331C178.99 31.8021 177.94 32.8524 176.671 32.8524C175.402 32.8524 174.352 31.8021 174.352 30.5331C174.352 29.2641 175.402 28.2139 176.671 28.2139C177.94 28.2139 178.99 29.2641 178.99 30.5331Z" fill="#F9F0EC"/>
<path d="M172.679 16.7926C172.679 22.7439 170.185 26.5947 167.734 28.6514C165.765 30.3143 162.614 32.2397 158.414 32.4585C156.794 32.546 155.876 32.546 155.219 32.546C154.563 32.546 154.081 32.546 153.469 32.5023C151.762 32.4585 150.231 32.371 149.443 32.371H141.698V31.7583H146.555V1.82692H141.698V1.21429H150.099C150.449 1.21429 153.95 1.08301 155.613 1.08301C167.165 1.08301 172.679 8.08451 172.679 16.7926ZM150.931 1.82692V31.7583C151.981 31.8459 153.338 31.9334 154.782 31.9334C158.107 31.9334 160.558 31.4083 162.177 30.3143C165.459 28.1701 167.647 23.6629 167.647 16.9677C167.647 6.64045 163.621 1.69564 154.475 1.69564C153.425 1.69564 152.462 1.78316 150.931 1.82692Z" fill="#F9F0EC"/>
<path d="M102.205 31.7585L114.02 0.426758H115.07L126.972 31.7585H130.867V32.3711H117.389V31.7585H122.246L117.652 19.5934H107.499L102.905 31.7585H107.762V32.3711H98.3538V31.7585H102.205ZM112.576 6.24676L107.762 18.9807H117.389L112.576 6.24676Z" fill="#F9F0EC"/>
<path d="M91.0442 2.13337C91.8756 2.13337 91.9631 1.95834 92.357 1.21443H92.9696V9.13488H92.4445C91.5693 4.01503 88.4186 1.03939 84.174 1.03939C80.3669 1.03939 76.9537 3.05232 76.9537 7.03443C76.9537 9.70375 78.6165 11.2353 80.9795 12.198C82.9049 12.9857 84.9179 13.5546 86.4495 14.0359C88.4186 14.6486 90.1252 15.0862 91.7443 15.8738C94.1511 17.0553 96.0328 19.112 96.0328 22.7003C96.0328 28.2577 91.7881 33.0275 84.7866 33.0275C79.0103 33.0275 77.8726 31.4084 75.7722 31.4084C74.9407 31.4084 74.7657 31.671 74.4594 32.3711H73.803V22.9628H74.2843C76.166 31.4522 80.2794 32.4149 84.7866 32.4149C90.8691 32.4149 92.6633 28.5203 92.6633 25.3696C92.6633 21.6938 90.0815 19.8997 86.8433 18.8495C85.1804 18.3244 83.3863 17.843 81.6359 17.2741C77.8288 16.0051 74.5907 14.2547 74.5907 9.61623C74.5907 4.23383 78.6165 0.426758 84.174 0.426758C88.1123 0.426758 89.5126 2.13337 91.0442 2.13337Z" fill="#F9F0EC"/>
<path d="M43.2065 31.7585L55.0216 0.426758H56.0718L67.9744 31.7585H71.8689V32.3711H58.3911V31.7585H63.2483L58.6536 19.5934H48.5014L43.9067 31.7585H48.764V32.3711H39.3557V31.7585H43.2065ZM53.5775 6.24676L48.764 18.9807H58.3911L53.5775 6.24676Z" fill="#F9F0EC"/>
<path d="M35.9415 2.13337C36.8604 2.13337 37.2105 1.95834 37.8669 1.21443H38.5233V9.96631H38.0419C36.5979 3.48992 33.4472 1.03939 28.3711 1.03939C21.8509 1.03939 18.1752 5.37157 18.1752 16.7053C18.1752 27.2075 20.8882 32.4149 28.4149 32.4149C35.7227 32.4149 37.4293 28.0389 38.6546 23.0504H39.1359V32.3711H38.4795C37.7356 31.5397 37.2105 31.4522 36.5541 31.4522C34.9788 31.4522 32.3094 33.0275 28.4149 33.0275C24.389 33.0275 21.107 31.4522 18.4815 29.0454C15.1558 25.9822 13.1428 21.5188 13.1428 16.8803C13.1428 12.4606 14.7182 8.566 17.65 5.32781C20.7132 1.95834 24.9141 0.426758 28.7649 0.426758C32.3094 0.426758 34.2786 2.13337 35.9415 2.13337Z" fill="#F9F0EC"/>
<path opacity="0.6" d="M112.146 59.9168C108.751 59.9168 108.37 58.3622 108.37 57.4526H109.026C109.026 58.2247 109.396 59.3034 112.146 59.3034C114.885 59.3034 115.393 58.5102 115.393 57.7276C115.393 57.2728 115.128 56.9661 114.61 56.8181C114.028 56.6595 112.801 56.6277 111.934 56.5854C111.067 56.5537 109.766 56.4797 109.174 56.2258C108.656 55.9932 108.328 55.5173 108.328 54.9039C108.328 53.7088 109.534 52.7041 112.093 52.7041C115.139 52.7041 115.742 53.8569 115.742 55.1048H115.086C115.086 54.1001 114.515 53.3175 112.093 53.3175C109.999 53.3175 109.026 53.9732 109.026 54.851C109.026 55.3057 109.269 55.5807 109.671 55.7394C110.189 55.9297 111.511 55.9826 112.304 56.0143C113.246 56.0461 114.441 56.0884 115.075 56.2999C115.72 56.5114 116.091 57.0402 116.091 57.6959C116.091 58.7006 115.488 59.9168 112.146 59.9168Z" fill="#F9F0EC"/>
<path opacity="0.6" d="M101.67 59.7899V52.8311H102.357V59.1765H107.433V59.7899H101.67Z" fill="#F9F0EC"/>
<path opacity="0.6" d="M93.8064 59.7899V52.8311H100.11V53.4445H94.4938V56.0038H99.052V56.5749H94.4938V59.1765H100.215V59.7899H93.8064Z" fill="#F9F0EC"/>
<path opacity="0.6" d="M88.48 59.7899V53.4445H85.1169V52.8311H92.5412V53.4445H89.178V59.7899H88.48Z" fill="#F9F0EC"/>
<path opacity="0.6" d="M80.4192 59.9168C77.4897 59.9168 76.0408 58.4468 76.0408 56.2787C76.0408 54.2693 77.5002 52.7041 80.4192 52.7041C83.3381 52.7041 84.7975 54.2693 84.7975 56.2787C84.7975 58.341 83.4333 59.9168 80.4192 59.9168ZM80.4192 59.3034C82.9679 59.3034 84.0995 58.0132 84.0995 56.2787C84.0995 54.6077 82.8833 53.3175 80.4192 53.3175C77.955 53.3175 76.7388 54.6077 76.7388 56.2787C76.7388 58.0978 77.9444 59.3034 80.4192 59.3034Z" fill="#F9F0EC"/>
<path opacity="0.6" d="M66.4099 59.7899V52.8311H67.0973V55.8663H73.8235V52.8311H74.5216V59.7899H73.8235V56.4374H67.0973V59.7899H66.4099Z" fill="#F9F0EC"/>
<path d="M39.7458 78.5142L0.253097 78.5142" stroke="url(#paint0_linear_2421_3656)" stroke-width="0.394928"/>
<path d="M133.59 82.8359V71.7017H134.706V82.8359H133.59Z" fill="#F9F0EC"/>
<path d="M119.629 82.8359V71.7017H120.729V81.8544H128.851V82.8359H119.629Z" fill="#F9F0EC"/>
<path d="M107.654 83.0388C102.966 83.0388 100.648 80.6868 100.648 77.2179C100.648 74.0029 102.983 71.4985 107.654 71.4985C112.324 71.4985 114.659 74.0029 114.659 77.2179C114.659 80.5176 112.476 83.0388 107.654 83.0388ZM107.654 82.0574C111.732 82.0574 113.542 79.993 113.542 77.2179C113.542 74.5444 111.596 72.48 107.654 72.48C103.711 72.48 101.765 74.5444 101.765 77.2179C101.765 80.1284 103.694 82.0574 107.654 82.0574Z" fill="#F9F0EC"/>
<path d="M84.7322 82.8359V71.7017H91.3315C94.5127 71.7017 96.154 73.0046 96.154 75.3905C96.154 77.7426 94.5634 79.0286 91.4161 79.0286H85.8321V82.8359H84.7322ZM85.8321 78.1317H91.2638C93.7851 78.1317 95.0542 77.2518 95.0542 75.4074C95.0542 73.6307 93.8697 72.6831 91.1792 72.6831H85.8321V78.1317Z" fill="#F9F0EC"/>
<path d="M78.7444 82.8359L77.0184 80.0608H67.8809L66.1549 82.8359H64.9197L71.8743 71.7017H73.1096L80.0642 82.8359H78.7444ZM68.4393 79.1639H76.46L72.4666 72.7339H72.4327L68.4393 79.1639Z" fill="#F9F0EC"/>
<path d="M47.4919 82.8359V71.7017H49.1502L59.1676 81.3299H59.2015V71.7017H60.2675V82.8359H59.1676L48.5749 72.6323H48.558V82.8359H47.4919Z" fill="#F9F0EC"/>
<path d="M142.508 78.5142H182" stroke="url(#paint1_linear_2421_3656)" stroke-width="0.394928"/>
<path d="M146.607 99.7074V94.8047H147.419L149.819 99.1411H149.833L152.225 94.8047H153.03V99.7074H152.546V95.1623H152.538L150.005 99.7074H149.625L147.084 95.1623H147.077V99.7074H146.607Z" fill="#F9F0EC"/>
<path d="M142.454 99.7969C140.39 99.7969 139.369 98.7612 139.369 97.2338C139.369 95.8181 140.397 94.7153 142.454 94.7153C144.51 94.7153 145.538 95.8181 145.538 97.2338C145.538 98.6867 144.577 99.7969 142.454 99.7969ZM142.454 99.3647C144.249 99.3647 145.047 98.4557 145.047 97.2338C145.047 96.0565 144.19 95.1475 142.454 95.1475C140.718 95.1475 139.861 96.0565 139.861 97.2338C139.861 98.5153 140.71 99.3647 142.454 99.3647Z" fill="#F9F0EC"/>
<path d="M135.783 99.7969C133.6 99.7969 132.811 98.5153 132.811 97.2636C132.811 95.8479 133.831 94.7153 135.739 94.7153C137.751 94.7153 138.466 95.8702 138.466 96.6153V96.6675H138.004V96.6377C138.004 96.0491 137.4 95.1475 135.754 95.1475C134.159 95.1475 133.302 96.0267 133.302 97.2636C133.302 98.329 133.995 99.3647 135.783 99.3647C137.326 99.3647 138.041 98.6047 138.041 97.882V97.8522H138.503V97.8969C138.503 98.7761 137.669 99.7969 135.783 99.7969Z" fill="#F9F0EC"/>
<path d="M130.908 99.7074V98.9102H131.444V99.7074H130.908Z" fill="#F9F0EC"/>
<path d="M126.875 99.7969C124.483 99.7969 124.215 98.7016 124.215 98.0608H124.677C124.677 98.6047 124.938 99.3647 126.875 99.3647C128.805 99.3647 129.163 98.8059 129.163 98.2545C129.163 97.9341 128.976 97.7181 128.611 97.6138C128.201 97.502 127.337 97.4796 126.726 97.4498C126.115 97.4275 125.199 97.3753 124.781 97.1965C124.416 97.0326 124.185 96.6973 124.185 96.2651C124.185 95.4232 125.035 94.7153 126.838 94.7153C128.984 94.7153 129.408 95.5275 129.408 96.4067H128.946C128.946 95.6989 128.544 95.1475 126.838 95.1475C125.363 95.1475 124.677 95.6094 124.677 96.2279C124.677 96.5483 124.848 96.742 125.132 96.8538C125.497 96.9879 126.428 97.0251 126.987 97.0475C127.65 97.0698 128.492 97.0996 128.939 97.2487C129.394 97.3977 129.654 97.7702 129.654 98.2322C129.654 98.94 129.23 99.7969 126.875 99.7969Z" fill="#F9F0EC"/>
<path d="M119.494 99.7074V94.8047H119.978V99.2753H123.555V99.7074H119.494Z" fill="#F9F0EC"/>
<path d="M113.957 99.7074V94.8047H118.398V95.2368H114.441V97.04H117.652V97.4423H114.441V99.2753H118.472V99.7074H113.957Z" fill="#F9F0EC"/>
<path d="M110.203 99.7074V95.2368H107.834V94.8047H113.064V95.2368H110.695V99.7074H110.203Z" fill="#F9F0EC"/>
<path d="M104.524 99.7969C102.46 99.7969 101.439 98.7612 101.439 97.2338C101.439 95.8181 102.467 94.7153 104.524 94.7153C106.58 94.7153 107.609 95.8181 107.609 97.2338C107.609 98.6867 106.647 99.7969 104.524 99.7969ZM104.524 99.3647C106.32 99.3647 107.117 98.4557 107.117 97.2338C107.117 96.0565 106.26 95.1475 104.524 95.1475C102.788 95.1475 101.931 96.0565 101.931 97.2338C101.931 98.5153 102.78 99.3647 104.524 99.3647Z" fill="#F9F0EC"/>
<path d="M94.6538 99.7074V94.8047H95.1381V96.9431H99.8769V94.8047H100.369V99.7074H99.8769V97.3455H95.1381V99.7074H94.6538Z" fill="#F9F0EC"/>
<path d="M88.3357 99.7074V94.8047H90.6231C92.8733 94.8047 93.5812 95.9521 93.5812 97.256C93.5812 98.8058 92.7988 99.7074 90.8243 99.7074H88.3357ZM88.82 99.2753H90.8169C92.4412 99.2753 93.0894 98.5823 93.0894 97.256C93.0894 96.131 92.5082 95.2368 90.6231 95.2368H88.82V99.2753Z" fill="#F9F0EC"/>
<path d="M86.8176 99.7074L86.0577 98.4855H82.0341L81.2741 99.7074H80.7302L83.7926 94.8047H84.3365L87.3988 99.7074H86.8176ZM82.28 98.0906H85.8118L84.0533 95.2592H84.0384L82.28 98.0906Z" fill="#F9F0EC"/>
<path d="M77.4181 99.7969C75.0263 99.7969 74.7581 98.7016 74.7581 98.0608H75.22C75.22 98.6047 75.4808 99.3647 77.4181 99.3647C79.3479 99.3647 79.7055 98.8059 79.7055 98.2545C79.7055 97.9341 79.5192 97.7181 79.1541 97.6138C78.7443 97.502 77.88 97.4796 77.269 97.4498C76.6581 97.4275 75.7416 97.3753 75.3243 97.1965C74.9593 97.0326 74.7283 96.6973 74.7283 96.2651C74.7283 95.4232 75.5777 94.7153 77.3808 94.7153C79.5267 94.7153 79.9514 95.5275 79.9514 96.4067H79.4894C79.4894 95.6989 79.0871 95.1475 77.3808 95.1475C75.9055 95.1475 75.22 95.6094 75.22 96.2279C75.22 96.5483 75.3914 96.742 75.6745 96.8538C76.0396 96.9879 76.971 97.0251 77.5298 97.0475C78.193 97.0698 79.0349 97.0996 79.482 97.2487C79.9365 97.3977 80.1973 97.7702 80.1973 98.2322C80.1973 98.94 79.7726 99.7969 77.4181 99.7969Z" fill="#F9F0EC"/>
<path d="M73.6067 99.7074L72.8467 98.4855H68.8232L68.0632 99.7074H67.5193L70.5816 94.8047H71.1255L74.1879 99.7074H73.6067ZM69.0691 98.0906H72.6008L70.8424 95.2592H70.8275L69.0691 98.0906Z" fill="#F9F0EC"/>
<path d="M64.375 99.7969C62.1919 99.7969 61.4021 98.5153 61.4021 97.2636C61.4021 95.8479 62.4229 94.7153 64.3303 94.7153C66.3421 94.7153 67.0574 95.8702 67.0574 96.6153V96.6675H66.5954V96.6377C66.5954 96.0491 65.9919 95.1475 64.3452 95.1475C62.7507 95.1475 61.8939 96.0267 61.8939 97.2636C61.8939 98.329 62.5868 99.3647 64.375 99.3647C65.9174 99.3647 66.6327 98.6047 66.6327 97.882V97.8522H67.0946V97.8969C67.0946 98.7761 66.2601 99.7969 64.375 99.7969Z" fill="#F9F0EC"/>
<path d="M59.5 99.7074V98.9102H60.0365V99.7074H59.5Z" fill="#F9F0EC"/>
<path d="M51.6639 99.7074L49.2498 94.8047H49.7937L51.9321 99.1337H51.947L53.9066 94.909H54.3835L56.3207 99.1337H56.3356L58.4666 94.8047H58.9807L56.5666 99.7074H56.0525L54.1376 95.5572H54.1227L52.1854 99.7074H51.6639Z" fill="#F9F0EC"/>
<path d="M41.4451 99.7074L39.031 94.8047H39.5749L41.7133 99.1337H41.7282L43.6878 94.909H44.1647L46.102 99.1337H46.1169L48.2478 94.8047H48.7619L46.3478 99.7074H45.8337L43.9188 95.5572H43.9039L41.9667 99.7074H41.4451Z" fill="#F9F0EC"/>
<path d="M31.2283 99.7074L28.8142 94.8047H29.3581L31.4966 99.1337H31.5115L33.4711 94.909H33.9479L35.8852 99.1337H35.9001L38.031 94.8047H38.5451L36.131 99.7074H35.6169L33.702 95.5572H33.6871L31.7499 99.7074H31.2283Z" fill="#F9F0EC"/>
<defs>
<linearGradient id="paint0_linear_2421_3656" x1="39.7458" y1="78.0142" x2="0.253098" y2="78.0142" gradientUnits="userSpaceOnUse">
<stop stop-color="white"/>
<stop offset="1" stop-color="white" stop-opacity="0"/>
</linearGradient>
<linearGradient id="paint1_linear_2421_3656" x1="142.508" y1="79.0142" x2="182" y2="79.0142" gradientUnits="userSpaceOnUse">
<stop stop-color="white"/>
<stop offset="1" stop-color="white" stop-opacity="0"/>
</linearGradient>
</defs>
</svg>
