<svg width="24" height="24" viewBox="0 0 24 24" fill="none" xmlns="http://www.w3.org/2000/svg">
<g id="accessibility">
<mask id="mask0_2544_582" style="mask-type:alpha" maskUnits="userSpaceOnUse" x="0" y="0" width="24" height="24">
<rect id="Bounding box" width="24" height="24" fill="#D9D9D9"/>
</mask>
<g mask="url(#mask0_2544_582)">
<path id="accessibility_2" d="M11.9999 5.76903C11.5346 5.76903 11.1362 5.60328 10.8047 5.27178C10.4733 4.94044 10.3077 4.54211 10.3077 4.07678C10.3077 3.61128 10.4733 3.21286 10.8047 2.88153C11.1362 2.55003 11.5346 2.38428 11.9999 2.38428C12.4653 2.38428 12.8637 2.55003 13.1952 2.88153C13.5265 3.21286 13.6922 3.61128 13.6922 4.07678C13.6922 4.54211 13.5265 4.94044 13.1952 5.27178C12.8637 5.60328 12.4653 5.76903 11.9999 5.76903ZM9.80768 21.4998V8.42278H3.96143V7.42278H20.0384V8.42278H14.1922V21.4998H13.1922V15.9998H10.8077V21.4998H9.80768Z" fill="#F9F0EC"/>
</g>
</g>
</svg>
