<svg width="24" height="24" viewBox="0 0 24 24" fill="none" xmlns="http://www.w3.org/2000/svg">
<g id="airline_seat_flat">
<mask id="mask0_2544_606" style="mask-type:alpha" maskUnits="userSpaceOnUse" x="0" y="0" width="24" height="24">
<rect id="Bounding box" width="24" height="24" fill="#D9D9D9"/>
</mask>
<g mask="url(#mask0_2544_606)">
<path id="airline_seat_flat_2" d="M9.53858 13V8H20.4616V13H9.53858ZM3.53857 15.7692V14.7692H20.4616V15.7692H3.53857ZM5.65382 13C5.05132 13 4.54816 12.7981 4.14432 12.3942C3.74049 11.9904 3.53857 11.4872 3.53857 10.8845C3.53857 10.282 3.74049 9.77883 4.14432 9.375C4.54816 8.97117 5.05132 8.76925 5.65382 8.76925C6.25649 8.76925 6.75974 8.97117 7.16357 9.375C7.56741 9.77883 7.76932 10.282 7.76932 10.8845C7.76932 11.4872 7.56741 11.9904 7.16357 12.3942C6.75974 12.7981 6.25649 13 5.65382 13ZM5.65382 12C5.96999 12 6.23491 11.8931 6.44857 11.6793C6.66241 11.4656 6.76932 11.2007 6.76932 10.8845C6.76932 10.5685 6.66241 10.3037 6.44857 10.09C6.23491 9.87617 5.96999 9.76925 5.65382 9.76925C5.33782 9.76925 5.07299 9.87617 4.85932 10.09C4.64549 10.3037 4.53857 10.5685 4.53857 10.8845C4.53857 11.2007 4.64549 11.4656 4.85932 11.6793C5.07299 11.8931 5.33782 12 5.65382 12ZM10.5386 12H19.4616V9H10.5386V12Z" fill="#F9F0EC"/>
</g>
</g>
</svg>
