<svg xmlns="http://www.w3.org/2000/svg" width="17" height="16" viewBox="0 0 17 16" fill="none">
  <g clip-path="url(#clip0_2031_192)">
    <path d="M8.36084 0.109375C8.40251 0.078125 8.45199 0.052083 8.50928 0.03125C8.56657 0.010417 8.62126 0 8.67334 0C8.67334 0 8.67594 0 8.68115 0C8.68636 0 8.68896 0 8.68896 0C8.68896 0 8.69417 0 8.70459 0C8.75667 0 8.80615 0.010417 8.85303 0.03125C8.8999 0.052083 8.93896 0.078125 8.97021 0.109375L16.5327 7.71875C16.5848 7.75 16.6239 7.78906 16.6499 7.83594C16.6759 7.88281 16.689 7.9375 16.689 8C16.689 8 16.689 8.00521 16.689 8.01562C16.689 8.06771 16.6759 8.11719 16.6499 8.16406C16.6239 8.21094 16.59 8.25 16.5483 8.28125H16.5327L8.97021 15.8906C8.93896 15.9323 8.8999 15.9609 8.85303 15.9766C8.80615 15.9922 8.75667 16 8.70459 16C8.69417 16 8.68896 16 8.68896 16C8.68896 16 8.68376 16 8.67334 16C8.62126 16 8.56657 15.9896 8.50928 15.9688C8.45199 15.9479 8.40251 15.9219 8.36084 15.8906L8.11084 15.6094C8.07959 15.5677 8.05355 15.526 8.03271 15.4844C8.01188 15.4427 8.00146 15.3906 8.00146 15.3281C8.00146 15.3281 8.00146 15.3229 8.00146 15.3125C8.00146 15.25 8.01188 15.1927 8.03271 15.1406C8.05355 15.0885 8.07959 15.0417 8.11084 15L14.5327 8.60938H1.04834C1.04834 8.60938 1.04574 8.60938 1.04053 8.60938C1.03532 8.60938 1.03271 8.60938 1.03271 8.60938C0.980632 8.60938 0.928548 8.59896 0.876465 8.57812C0.824382 8.55729 0.777507 8.52604 0.73584 8.48438C0.694173 8.44271 0.662923 8.39583 0.64209 8.34375C0.621257 8.29167 0.61084 8.23438 0.61084 8.17188V7.8125C0.61084 7.75 0.621257 7.69271 0.64209 7.64062C0.662923 7.58854 0.694173 7.54688 0.73584 7.51562C0.777507 7.47396 0.824382 7.4401 0.876465 7.41406C0.928548 7.38802 0.980632 7.375 1.03271 7.375C1.03271 7.375 1.03532 7.375 1.04053 7.375C1.04574 7.375 1.04834 7.375 1.04834 7.375H14.5327L8.11084 1C8.07959 0.958333 8.05355 0.908854 8.03271 0.851562C8.01188 0.794271 8.00146 0.734375 8.00146 0.671875C8.00146 0.671875 8.00146 0.669271 8.00146 0.664062C8.00146 0.658854 8.00146 0.65625 8.00146 0.65625C8.00146 0.604167 8.01188 0.554688 8.03271 0.507812C8.05355 0.460938 8.07959 0.421875 8.11084 0.390625L8.36084 0.109375Z" fill="#9D9D9D"/>
  </g>
  <defs>
    <clipPath id="clip0_2031_192">
      <rect width="16.08" height="16" fill="white" transform="matrix(1 0 0 -1 0.609863 16)"/>
    </clipPath>
  </defs>
</svg>