<svg width="23" height="26" viewBox="0 0 23 26" fill="none" xmlns="http://www.w3.org/2000/svg">
<g id="Icon" clip-path="url(#clip0_2030_183)">
<path id="Vector" d="M20.0537 3.625C20.0537 3.625 20.0578 3.625 20.0659 3.625C20.0741 3.625 20.0863 3.625 20.1025 3.625C20.4118 3.625 20.7048 3.68604 20.9814 3.80811C21.2581 3.93018 21.5023 4.09701 21.7139 4.30859C21.9255 4.52018 22.0923 4.76432 22.2144 5.04102C22.3364 5.31771 22.3975 5.61068 22.3975 5.91992C22.3975 5.9362 22.3975 5.9484 22.3975 5.95654C22.3975 5.96468 22.3975 5.96875 22.3975 5.96875V23.1562C22.3975 23.1562 22.3975 23.1603 22.3975 23.1685C22.3975 23.1766 22.3975 23.1888 22.3975 23.2051C22.3975 23.5143 22.3364 23.8073 22.2144 24.084C22.0923 24.3607 21.9255 24.6048 21.7139 24.8164C21.5023 25.028 21.2581 25.1948 20.9814 25.3169C20.7048 25.439 20.4118 25.5 20.1025 25.5C20.0863 25.5 20.0741 25.5 20.0659 25.5C20.0578 25.5 20.0537 25.5 20.0537 25.5H2.86621C2.86621 25.5 2.86214 25.5 2.854 25.5C2.84587 25.5 2.83366 25.5 2.81738 25.5C2.50814 25.5 2.21517 25.439 1.93848 25.3169C1.66178 25.1948 1.41764 25.028 1.20605 24.8164C0.994466 24.6048 0.827637 24.3607 0.705566 24.084C0.583496 23.8073 0.522461 23.5143 0.522461 23.2051C0.522461 23.1888 0.522461 23.1766 0.522461 23.1685C0.522461 23.1603 0.522461 23.1562 0.522461 23.1562V5.96875C0.522461 5.96875 0.522461 5.96468 0.522461 5.95654C0.522461 5.9484 0.522461 5.9362 0.522461 5.91992C0.522461 5.61068 0.583496 5.31771 0.705566 5.04102C0.827637 4.76432 0.994466 4.52018 1.20605 4.30859C1.41764 4.09701 1.66178 3.93018 1.93848 3.80811C2.21517 3.68604 2.50814 3.625 2.81738 3.625C2.83366 3.625 2.84587 3.625 2.854 3.625C2.86214 3.625 2.86621 3.625 2.86621 3.625H5.20996V1.08594C5.20996 1.00456 5.22624 0.927246 5.25879 0.854004C5.29134 0.780762 5.33203 0.719727 5.38086 0.670898C5.42969 0.62207 5.49072 0.581381 5.56396 0.548828C5.63721 0.516275 5.71452 0.5 5.7959 0.5H6.18652C6.2679 0.5 6.34521 0.516275 6.41846 0.548828C6.4917 0.581381 6.55273 0.62207 6.60156 0.670898C6.65039 0.719727 6.69108 0.780762 6.72363 0.854004C6.75619 0.927246 6.77246 1.00456 6.77246 1.08594V3.625H16.1475V1.08594C16.1475 1.00456 16.1637 0.927246 16.1963 0.854004C16.2288 0.780762 16.2695 0.719727 16.3184 0.670898C16.3672 0.62207 16.4282 0.581381 16.5015 0.548828C16.5747 0.516275 16.652 0.5 16.7334 0.5H17.124C17.2054 0.5 17.2827 0.516275 17.356 0.548828C17.4292 0.581381 17.4902 0.62207 17.5391 0.670898C17.5879 0.719727 17.6286 0.780762 17.6611 0.854004C17.6937 0.927246 17.71 1.00456 17.71 1.08594V3.625H20.0537ZM2.86621 5.1875C2.86621 5.1875 2.86214 5.1875 2.854 5.1875C2.84587 5.1875 2.8418 5.1875 2.8418 5.1875C2.74414 5.1875 2.64648 5.20785 2.54883 5.24854C2.45117 5.28922 2.36979 5.34212 2.30469 5.40723C2.23958 5.47233 2.18669 5.55371 2.146 5.65137C2.10531 5.74902 2.08496 5.84668 2.08496 5.94434C2.08496 5.94434 2.08496 5.9484 2.08496 5.95654C2.08496 5.96468 2.08496 5.96875 2.08496 5.96875V8.3125H20.835V5.96875C20.835 5.96875 20.835 5.96061 20.835 5.94434C20.835 5.84668 20.8146 5.74902 20.7739 5.65137C20.7332 5.55371 20.6803 5.47233 20.6152 5.40723C20.5501 5.34212 20.4688 5.28922 20.3711 5.24854C20.2734 5.20785 20.1758 5.1875 20.0781 5.1875C20.0781 5.1875 20.0741 5.1875 20.0659 5.1875C20.0578 5.1875 20.0537 5.1875 20.0537 5.1875H2.86621ZM20.0537 23.9375C20.0537 23.9375 20.0578 23.9375 20.0659 23.9375C20.0741 23.9375 20.0781 23.9375 20.0781 23.9375C20.1758 23.9375 20.2734 23.9172 20.3711 23.8765C20.4688 23.8358 20.5501 23.7829 20.6152 23.7178C20.6803 23.6527 20.7332 23.5713 20.7739 23.4736C20.8146 23.376 20.835 23.2783 20.835 23.1807C20.835 23.1807 20.835 23.1766 20.835 23.1685C20.835 23.1603 20.835 23.1562 20.835 23.1562V9.875H2.08496V23.1562C2.08496 23.1562 2.08496 23.1603 2.08496 23.1685C2.08496 23.1766 2.08496 23.1807 2.08496 23.1807C2.08496 23.2783 2.10531 23.376 2.146 23.4736C2.18669 23.5713 2.23958 23.6527 2.30469 23.7178C2.36979 23.7829 2.45117 23.8358 2.54883 23.8765C2.64648 23.9172 2.74414 23.9375 2.8418 23.9375C2.8418 23.9375 2.84587 23.9375 2.854 23.9375C2.86214 23.9375 2.86621 23.9375 2.86621 23.9375H20.0537ZM5.7959 16.125C5.71452 16.125 5.63721 16.1087 5.56396 16.0762C5.49072 16.0436 5.42969 16.0029 5.38086 15.9541C5.33203 15.9053 5.29134 15.8442 5.25879 15.771C5.22624 15.6978 5.20996 15.6204 5.20996 15.5391V13.5859C5.20996 13.5046 5.22624 13.4272 5.25879 13.354C5.29134 13.2808 5.33203 13.2197 5.38086 13.1709C5.42969 13.1221 5.49072 13.0814 5.56396 13.0488C5.63721 13.0163 5.71452 13 5.7959 13H7.74902C7.8304 13 7.90771 13.0163 7.98096 13.0488C8.0542 13.0814 8.11523 13.1221 8.16406 13.1709C8.21289 13.2197 8.25358 13.2808 8.28613 13.354C8.31869 13.4272 8.33496 13.5046 8.33496 13.5859V15.5391C8.33496 15.6204 8.31869 15.6978 8.28613 15.771C8.25358 15.8442 8.21289 15.9053 8.16406 15.9541C8.11523 16.0029 8.0542 16.0436 7.98096 16.0762C7.90771 16.1087 7.8304 16.125 7.74902 16.125H5.7959ZM10.4834 16.125C10.402 16.125 10.3247 16.1087 10.2515 16.0762C10.1782 16.0436 10.1172 16.0029 10.0684 15.9541C10.0195 15.9053 9.97884 15.8442 9.94629 15.771C9.91374 15.6978 9.89746 15.6204 9.89746 15.5391V13.5859C9.89746 13.5046 9.91374 13.4272 9.94629 13.354C9.97884 13.2808 10.0195 13.2197 10.0684 13.1709C10.1172 13.1221 10.1782 13.0814 10.2515 13.0488C10.3247 13.0163 10.402 13 10.4834 13H12.4365C12.5179 13 12.5952 13.0163 12.6685 13.0488C12.7417 13.0814 12.8027 13.1221 12.8516 13.1709C12.9004 13.2197 12.9411 13.2808 12.9736 13.354C13.0062 13.4272 13.0225 13.5046 13.0225 13.5859V15.5391C13.0225 15.6204 13.0062 15.6978 12.9736 15.771C12.9411 15.8442 12.9004 15.9053 12.8516 15.9541C12.8027 16.0029 12.7417 16.0436 12.6685 16.0762C12.5952 16.1087 12.5179 16.125 12.4365 16.125H10.4834ZM15.1709 16.125C15.0895 16.125 15.0122 16.1087 14.939 16.0762C14.8657 16.0436 14.8047 16.0029 14.7559 15.9541C14.707 15.9053 14.6663 15.8442 14.6338 15.771C14.6012 15.6978 14.585 15.6204 14.585 15.5391V13.5859C14.585 13.5046 14.6012 13.4272 14.6338 13.354C14.6663 13.2808 14.707 13.2197 14.7559 13.1709C14.8047 13.1221 14.8657 13.0814 14.939 13.0488C15.0122 13.0163 15.0895 13 15.1709 13H17.124C17.2054 13 17.2827 13.0163 17.356 13.0488C17.4292 13.0814 17.4902 13.1221 17.5391 13.1709C17.5879 13.2197 17.6286 13.2808 17.6611 13.354C17.6937 13.4272 17.71 13.5046 17.71 13.5859V15.5391C17.71 15.6204 17.6937 15.6978 17.6611 15.771C17.6286 15.8442 17.5879 15.9053 17.5391 15.9541C17.4902 16.0029 17.4292 16.0436 17.356 16.0762C17.2827 16.1087 17.2054 16.125 17.124 16.125H15.1709ZM10.4834 20.8125C10.402 20.8125 10.3247 20.7962 10.2515 20.7637C10.1782 20.7311 10.1172 20.6904 10.0684 20.6416C10.0195 20.5928 9.97884 20.5317 9.94629 20.4585C9.91374 20.3853 9.89746 20.3079 9.89746 20.2266V18.2734C9.89746 18.1921 9.91374 18.1147 9.94629 18.0415C9.97884 17.9683 10.0195 17.9072 10.0684 17.8584C10.1172 17.8096 10.1782 17.7689 10.2515 17.7363C10.3247 17.7038 10.402 17.6875 10.4834 17.6875H12.4365C12.5179 17.6875 12.5952 17.7038 12.6685 17.7363C12.7417 17.7689 12.8027 17.8096 12.8516 17.8584C12.9004 17.9072 12.9411 17.9683 12.9736 18.0415C13.0062 18.1147 13.0225 18.1921 13.0225 18.2734V20.2266C13.0225 20.3079 13.0062 20.3853 12.9736 20.4585C12.9411 20.5317 12.9004 20.5928 12.8516 20.6416C12.8027 20.6904 12.7417 20.7311 12.6685 20.7637C12.5952 20.7962 12.5179 20.8125 12.4365 20.8125H10.4834ZM5.7959 20.8125C5.71452 20.8125 5.63721 20.7962 5.56396 20.7637C5.49072 20.7311 5.42969 20.6904 5.38086 20.6416C5.33203 20.5928 5.29134 20.5317 5.25879 20.4585C5.22624 20.3853 5.20996 20.3079 5.20996 20.2266V18.2734C5.20996 18.1921 5.22624 18.1147 5.25879 18.0415C5.29134 17.9683 5.33203 17.9072 5.38086 17.8584C5.42969 17.8096 5.49072 17.7689 5.56396 17.7363C5.63721 17.7038 5.71452 17.6875 5.7959 17.6875H7.74902C7.8304 17.6875 7.90771 17.7038 7.98096 17.7363C8.0542 17.7689 8.11523 17.8096 8.16406 17.8584C8.21289 17.9072 8.25358 17.9683 8.28613 18.0415C8.31869 18.1147 8.33496 18.1921 8.33496 18.2734V20.2266C8.33496 20.3079 8.31869 20.3853 8.28613 20.4585C8.25358 20.5317 8.21289 20.5928 8.16406 20.6416C8.11523 20.6904 8.0542 20.7311 7.98096 20.7637C7.90771 20.7962 7.8304 20.8125 7.74902 20.8125H5.7959ZM15.1709 20.8125C15.0895 20.8125 15.0122 20.7962 14.939 20.7637C14.8657 20.7311 14.8047 20.6904 14.7559 20.6416C14.707 20.5928 14.6663 20.5317 14.6338 20.4585C14.6012 20.3853 14.585 20.3079 14.585 20.2266V18.2734C14.585 18.1921 14.6012 18.1147 14.6338 18.0415C14.6663 17.9683 14.707 17.9072 14.7559 17.8584C14.8047 17.8096 14.8657 17.7689 14.939 17.7363C15.0122 17.7038 15.0895 17.6875 15.1709 17.6875H17.124C17.2054 17.6875 17.2827 17.7038 17.356 17.7363C17.4292 17.7689 17.4902 17.8096 17.5391 17.8584C17.5879 17.9072 17.6286 17.9683 17.6611 18.0415C17.6937 18.1147 17.71 18.1921 17.71 18.2734V20.2266C17.71 20.3079 17.6937 20.3853 17.6611 20.4585C17.6286 20.5317 17.5879 20.5928 17.5391 20.6416C17.4902 20.6904 17.4292 20.7311 17.356 20.7637C17.2827 20.7962 17.2054 20.8125 17.124 20.8125H15.1709Z" fill="#9D9D9D"/>
</g>
<defs>
<clipPath id="clip0_2030_183">
<rect width="21.88" height="25" fill="white" transform="matrix(1 0 0 -1 0.52002 25.5)"/>
</clipPath>
</defs>
</svg>
