<svg width="24" height="24" viewBox="0 0 24 24" fill="none" xmlns="http://www.w3.org/2000/svg">
<g id="crop_rotate">
<mask id="mask0_2544_614" style="mask-type:alpha" maskUnits="userSpaceOnUse" x="0" y="0" width="24" height="24">
<rect id="Bounding box" width="24" height="24" fill="#D9D9D9"/>
</mask>
<g mask="url(#mask0_2544_614)">
<path id="crop_rotate_2" d="M12.0385 23C10.6128 23 9.26183 22.7465 7.9855 22.2395C6.70933 21.7323 5.57542 21.031 4.58375 20.1355C3.59208 19.24 2.78017 18.1823 2.148 16.9625C1.516 15.7427 1.13333 14.4218 1 13H2C2.13333 14.2642 2.47983 15.4395 3.0395 16.526C3.599 17.6125 4.31817 18.5557 5.197 19.3557C6.076 20.1557 7.08217 20.7888 8.2155 21.2548C9.34883 21.7208 10.5539 21.9653 11.8308 21.9885L9.89625 20.0538L10.6038 19.3463L14.0655 22.8078C13.7295 22.8884 13.3926 22.9407 13.0548 22.9645C12.7169 22.9882 12.3782 23 12.0385 23ZM15 18V16H8V9H6V8H8V6H9V15H19V16H16V18H15ZM15 14V9H10V8H16V14H15ZM22 11C21.8705 9.73583 21.525 8.5605 20.9635 7.474C20.402 6.3875 19.6818 5.44425 18.803 4.64425C17.924 3.84425 16.9178 3.21125 15.7845 2.74525C14.6512 2.27925 13.4461 2.03467 12.1692 2.0115L14.1038 3.94625L13.3962 4.65375L9.9345 1.19225C10.2705 1.11158 10.6074 1.05933 10.9453 1.0355C11.2831 1.01183 11.6218 1 11.9615 1C13.3872 1 14.7382 1.2535 16.0145 1.7605C17.2907 2.26767 18.4246 2.969 19.4163 3.8645C20.4079 4.76 21.2198 5.81767 21.852 7.0375C22.484 8.25733 22.8667 9.57817 23 11H22Z" fill="#F9F0EC"/>
</g>
</g>
</svg>
