<svg width="16" height="19" viewBox="0 0 16 19" fill="none" xmlns="http://www.w3.org/2000/svg">
<path d="M8.0034 9.23077C8.44857 9.23077 8.82853 9.07227 9.14328 8.75525C9.45801 8.43823 9.61538 8.05714 9.61538 7.61198C9.61538 7.16681 9.45688 6.78686 9.13988 6.47213C8.82286 6.15738 8.44177 6 7.9966 6C7.55144 6 7.17148 6.15851 6.85673 6.47552C6.542 6.79252 6.38463 7.17362 6.38463 7.6188C6.38463 8.06397 6.54313 8.44392 6.86013 8.75865C7.17715 9.0734 7.55824 9.23077 8.0034 9.23077ZM8 17.1769C9.87949 15.541 11.3654 13.8772 12.4577 12.1856C13.55 10.4939 14.0962 9.03077 14.0962 7.79615C14.0962 5.96667 13.517 4.45673 12.3587 3.26635C11.2003 2.07597 9.74744 1.48078 8 1.48078C6.25257 1.48078 4.79969 2.07597 3.64135 3.26635C2.48302 4.45673 1.90385 5.96667 1.90385 7.79615C1.90385 9.03077 2.45 10.4939 3.5423 12.1856C4.63462 13.8772 6.12052 15.541 8 17.1769ZM8 18.5192C5.65 16.441 3.87981 14.5029 2.68943 12.7048C1.49905 10.9067 0.903854 9.27052 0.903854 7.79615C0.903854 5.68077 1.59264 3.93589 2.9702 2.56153C4.34775 1.18718 6.02435 0.5 8 0.5C9.97565 0.5 11.6523 1.18718 13.0298 2.56153C14.4074 3.93589 15.0962 5.68077 15.0962 7.79615C15.0962 9.27052 14.501 10.9067 13.3106 12.7048C12.1202 14.5029 10.35 16.441 8 18.5192Z" fill="#F9F0EC"/>
</svg>
