<svg xmlns="http://www.w3.org/2000/svg" width="24" height="24" viewBox="0 0 24 24" fill="none">
  <mask id="mask0_323_3262" style="mask-type:alpha" maskUnits="userSpaceOnUse" x="0" y="0" width="24" height="24">
    <rect width="24" height="24" fill="#D9D9D9"/>
  </mask>
  <g mask="url(#mask0_323_3262)">
    <path d="M12.0034 11.7308C12.4485 11.7308 12.8285 11.5723 13.1432 11.2552C13.458 10.9382 13.6153 10.5571 13.6153 10.112C13.6153 9.66681 13.4568 9.28686 13.1398 8.97213C12.8228 8.65738 12.4417 8.5 11.9966 8.5C11.5514 8.5 11.1714 8.65851 10.8567 8.97552C10.542 9.29252 10.3846 9.67362 10.3846 10.1188C10.3846 10.564 10.5431 10.9439 10.8601 11.2587C11.1771 11.5734 11.5582 11.7308 12.0034 11.7308ZM12 19.6769C13.8794 18.041 15.3653 16.3772 16.4577 14.6856C17.55 12.9939 18.0961 11.5308 18.0961 10.2962C18.0961 8.46667 17.5169 6.95673 16.3586 5.76635C15.2003 4.57597 13.7474 3.98078 12 3.98078C10.2525 3.98078 8.79964 4.57597 7.64131 5.76635C6.48298 6.95673 5.90381 8.46667 5.90381 10.2962C5.90381 11.5308 6.44996 12.9939 7.54226 14.6856C8.63457 16.3772 10.1205 18.041 12 19.6769ZM12 21.0192C9.64996 18.941 7.87977 17.0029 6.68938 15.2048C5.499 13.4067 4.90381 11.7705 4.90381 10.2962C4.90381 8.18077 5.59259 6.43589 6.97016 5.06153C8.34771 3.68718 10.0243 3 12 3C13.9756 3 15.6522 3.68718 17.0298 5.06153C18.4073 6.43589 19.0961 8.18077 19.0961 10.2962C19.0961 11.7705 18.5009 13.4067 17.3105 15.2048C16.1202 17.0029 14.35 18.941 12 21.0192Z" fill="#181D24"/>
  </g>
</svg>