<svg width="28" height="28" viewBox="0 0 28 28" fill="none" xmlns="http://www.w3.org/2000/svg">
<g id="location_on">
<mask id="mask0_2440_846" style="mask-type:alpha" maskUnits="userSpaceOnUse" x="0" y="0" width="28" height="28">
<rect id="Bounding box" width="28" height="28" fill="#D9D9D9"/>
</mask>
<g mask="url(#mask0_2440_846)">
<path id="location_on_2" d="M14.004 13.6859C14.5234 13.6859 14.9666 13.501 15.3339 13.1311C15.701 12.7613 15.8846 12.3167 15.8846 11.7973C15.8846 11.2779 15.6997 10.8347 15.3299 10.4675C14.96 10.1003 14.5154 9.91667 13.9961 9.91667C13.4767 9.91667 13.0334 10.1016 12.6662 10.4714C12.299 10.8413 12.1154 11.2859 12.1154 11.8053C12.1154 12.3246 12.3003 12.7679 12.6702 13.1351C13.04 13.5023 13.4846 13.6859 14.004 13.6859ZM14 22.9564C16.1928 21.0479 17.9263 19.1068 19.2007 17.1332C20.475 15.1596 21.1122 13.4526 21.1122 12.0122C21.1122 9.87778 20.4365 8.11619 19.0851 6.72741C17.7337 5.33863 16.0387 4.64424 14 4.64424C11.9614 4.64424 10.2663 5.33863 8.91494 6.72741C7.56355 8.11619 6.88786 9.87778 6.88786 12.0122C6.88786 13.4526 7.52503 15.1596 8.79938 17.1332C10.0738 19.1068 11.8073 21.0479 14 22.9564ZM14 24.5224C11.2584 22.0979 9.19314 19.8367 7.80436 17.7389C6.41558 15.6412 5.72119 13.7323 5.72119 12.0122C5.72119 9.54423 6.52477 7.50854 8.13193 5.90511C9.73907 4.3017 11.6951 3.5 14 3.5C16.305 3.5 18.261 4.3017 19.8681 5.90511C21.4753 7.50854 22.2789 9.54423 22.2789 12.0122C22.2789 13.7323 21.5845 15.6412 20.1957 17.7389C18.8069 19.8367 16.7417 22.0979 14 24.5224Z" fill="#181D24"/>
</g>
</g>
</svg>
