<svg width="18" height="19" viewBox="0 0 18 19" fill="none" xmlns="http://www.w3.org/2000/svg">
<g id="mdi:instagram" clip-path="url(#clip0_259_811)">
<path id="Vector" d="M5.22 0.87207H12.78C15.66 0.87207 18 3.21207 18 6.09207V13.6521C18 15.0365 17.45 16.3642 16.4711 17.3432C15.4922 18.3221 14.1644 18.8721 12.78 18.8721H5.22C2.34 18.8721 0 16.5321 0 13.6521V6.09207C0 4.70764 0.549963 3.37991 1.5289 2.40097C2.50784 1.42203 3.83557 0.87207 5.22 0.87207ZM5.04 2.67207C4.1807 2.67207 3.35659 3.01343 2.74897 3.62104C2.14136 4.22866 1.8 5.05277 1.8 5.91207V13.8321C1.8 15.6231 3.249 17.0721 5.04 17.0721H12.96C13.8193 17.0721 14.6434 16.7307 15.251 16.1231C15.8586 15.5155 16.2 14.6914 16.2 13.8321V5.91207C16.2 4.12107 14.751 2.67207 12.96 2.67207H5.04ZM13.725 4.02207C14.0234 4.02207 14.3095 4.1406 14.5205 4.35158C14.7315 4.56255 14.85 4.8487 14.85 5.14707C14.85 5.44544 14.7315 5.73159 14.5205 5.94257C14.3095 6.15354 14.0234 6.27207 13.725 6.27207C13.4266 6.27207 13.1405 6.15354 12.9295 5.94257C12.7185 5.73159 12.6 5.44544 12.6 5.14707C12.6 4.8487 12.7185 4.56255 12.9295 4.35158C13.1405 4.1406 13.4266 4.02207 13.725 4.02207ZM9 5.37207C10.1935 5.37207 11.3381 5.84618 12.182 6.69009C13.0259 7.534 13.5 8.6786 13.5 9.87207C13.5 11.0655 13.0259 12.2101 12.182 13.0541C11.3381 13.898 10.1935 14.3721 9 14.3721C7.80653 14.3721 6.66193 13.898 5.81802 13.0541C4.97411 12.2101 4.5 11.0655 4.5 9.87207C4.5 8.6786 4.97411 7.534 5.81802 6.69009C6.66193 5.84618 7.80653 5.37207 9 5.37207ZM9 7.17207C8.28392 7.17207 7.59716 7.45653 7.09081 7.96288C6.58446 8.46923 6.3 9.15599 6.3 9.87207C6.3 10.5882 6.58446 11.2749 7.09081 11.7813C7.59716 12.2876 8.28392 12.5721 9 12.5721C9.71608 12.5721 10.4028 12.2876 10.9092 11.7813C11.4155 11.2749 11.7 10.5882 11.7 9.87207C11.7 9.15599 11.4155 8.46923 10.9092 7.96288C10.4028 7.45653 9.71608 7.17207 9 7.17207Z" fill="#F9F0EC"/>
</g>
<defs>
<clipPath id="clip0_259_811">
<rect width="18" height="18" fill="white" transform="translate(0 0.87207)"/>
</clipPath>
</defs>
</svg>
