<svg width="18" height="19" viewBox="0 0 18 19" fill="none" xmlns="http://www.w3.org/2000/svg">
<g id="mdi:facebook" clip-path="url(#clip0_259_806)">
<path id="Vector" d="M8.99999 0.87207C4.04999 0.87207 0 4.9293 0 9.92629C0 14.4444 3.294 18.1944 7.59599 18.8721V12.5468H5.30999V9.92629H7.59599V7.9293C7.59599 5.66123 8.93699 4.41424 10.998 4.41424C11.979 4.41424 13.005 4.58593 13.005 4.58593V6.81785H11.871C10.755 6.81785 10.404 7.51364 10.404 8.22749V9.92629H12.906L12.501 12.5468H10.404V18.8721C12.5248 18.5358 14.456 17.4493 15.8489 15.8089C17.2419 14.1684 18.0048 12.082 18 9.92629C18 4.9293 13.95 0.87207 8.99999 0.87207Z" fill="#F9F0EC"/>
</g>
<defs>
<clipPath id="clip0_259_806">
<rect width="18" height="18" fill="white" transform="translate(0 0.87207)"/>
</clipPath>
</defs>
</svg>
