<svg width="23" height="25" viewBox="0 0 23 25" fill="none" xmlns="http://www.w3.org/2000/svg">
<g id="Icon" clip-path="url(#clip0_2030_210)">
<path id="Vector" d="M21.0864 17.8711C21.1353 17.8548 21.1922 17.8426 21.2573 17.8345C21.3224 17.8263 21.3794 17.8223 21.4282 17.8223C21.591 17.8223 21.7497 17.8507 21.9043 17.9077C22.0589 17.9647 22.1932 18.0339 22.3071 18.1152C22.4699 18.2292 22.6082 18.3797 22.7222 18.5669C22.8361 18.7541 22.9093 18.9535 22.9419 19.165C22.9419 19.1976 22.946 19.2342 22.9541 19.2749C22.9622 19.3156 22.9663 19.3522 22.9663 19.3848C22.9663 19.5801 22.9338 19.7591 22.8687 19.9219C22.8035 20.0846 22.714 20.2311 22.6001 20.3613C22.0304 21.0775 21.3875 21.7204 20.6714 22.29C19.9552 22.8597 19.1903 23.348 18.3765 23.7549L18.3032 23.7793C17.522 24.1699 16.6797 24.471 15.7764 24.6826C14.873 24.8942 13.9331 25 12.9565 25C12.9403 25 12.9281 25 12.9199 25C12.9118 25 12.8996 25 12.8833 25C12.867 25 12.8507 25 12.8345 25C12.8182 25 12.8019 25 12.7856 25C11.6463 25 10.5518 24.8494 9.50195 24.5483C8.45215 24.2472 7.47152 23.8281 6.56006 23.291L6.60889 23.3154C5.66488 22.762 4.81445 22.1069 4.05762 21.3501C3.30078 20.5933 2.64567 19.751 2.09229 18.8232L2.06787 18.7744C1.53076 17.8955 1.11572 16.9312 0.822754 15.8813C0.529785 14.8315 0.383301 13.737 0.383301 12.5977C0.383301 12.5814 0.383301 12.5651 0.383301 12.5488C0.383301 12.5326 0.383301 12.5163 0.383301 12.5C0.383301 12.4837 0.383301 12.4674 0.383301 12.4512C0.383301 12.4349 0.383301 12.4186 0.383301 12.4023C0.383301 11.263 0.533854 10.1685 0.834961 9.11865C1.13607 8.06885 1.55518 7.08822 2.09229 6.17676L2.06787 6.22559C2.62126 5.28158 3.27637 4.43115 4.0332 3.67432C4.79004 2.91748 5.63232 2.26237 6.56006 1.70898L6.60889 1.68457C7.48779 1.14746 8.45215 0.732422 9.50195 0.439453C10.5518 0.146484 11.6463 0 12.7856 0C12.8019 0 12.8182 0 12.8345 0C12.8507 0 12.867 0 12.8833 0C12.8833 0 12.8914 0 12.9077 0C13.2983 0 13.693 0.0162754 14.0918 0.0488281C14.4906 0.0813808 14.8771 0.130209 15.2515 0.195312H15.1782C15.3898 0.244141 15.5851 0.32959 15.7642 0.45166C15.9432 0.57373 16.0897 0.724283 16.2036 0.90332C16.285 1.01725 16.346 1.14746 16.3867 1.29395C16.4274 1.44043 16.4478 1.58691 16.4478 1.7334C16.4478 1.7985 16.4437 1.86361 16.4355 1.92871C16.4274 1.99381 16.4152 2.05078 16.3989 2.09961C16.3501 2.3112 16.2606 2.50651 16.1304 2.68555C16.0002 2.86458 15.8455 3.01107 15.6665 3.125C15.0317 3.4668 14.4661 3.87777 13.9697 4.35791C13.4733 4.83805 13.0542 5.37923 12.7124 5.98145L12.688 6.00586C12.3462 6.57552 12.0817 7.19401 11.8945 7.86133C11.7074 8.52865 11.6138 9.22852 11.6138 9.96094C11.6138 9.97721 11.6138 9.98942 11.6138 9.99756C11.6138 10.0057 11.6138 10.0098 11.6138 10.0098C11.6138 10.026 11.6138 10.0464 11.6138 10.0708C11.6138 10.0952 11.6138 10.1156 11.6138 10.1318C11.6138 10.9294 11.7318 11.6984 11.9678 12.439C12.2038 13.1795 12.5415 13.859 12.981 14.4775L12.9565 14.4531C13.396 15.0879 13.9128 15.6494 14.5068 16.1377C15.1009 16.626 15.7479 17.0247 16.4478 17.334L16.4966 17.3584C16.9523 17.57 17.4447 17.7327 17.9736 17.8467C18.5026 17.9606 19.0519 18.0176 19.6216 18.0176C19.882 18.0176 20.1383 18.0054 20.3906 17.981C20.6429 17.9565 20.8911 17.9199 21.1353 17.8711H21.0864ZM12.8833 23.4375C12.8996 23.4375 12.9118 23.4375 12.9199 23.4375C12.9281 23.4375 12.9403 23.4375 12.9565 23.4375C13.8029 23.4375 14.6289 23.3439 15.4346 23.1567C16.2402 22.9696 17.0011 22.6969 17.7173 22.3389L17.644 22.3633C18.3927 22.0052 19.0763 21.578 19.6948 21.0815C20.3133 20.5851 20.8667 20.0277 21.355 19.4092L21.3794 19.3848C21.1027 19.4336 20.8138 19.4743 20.5127 19.5068C20.2116 19.5394 19.8983 19.5557 19.5728 19.5557C18.9054 19.5557 18.2585 19.4906 17.6318 19.3604C17.0052 19.2301 16.4071 19.0348 15.8374 18.7744L15.8862 18.7988C15.0073 18.4245 14.2139 17.9443 13.5059 17.3584C12.7979 16.7725 12.1916 16.097 11.687 15.332L11.6626 15.3076C11.158 14.5752 10.7633 13.7695 10.4785 12.8906C10.1937 12.0117 10.0513 11.084 10.0513 10.1074C10.0513 10.0911 10.0513 10.0749 10.0513 10.0586C10.0513 10.0423 10.0513 10.026 10.0513 10.0098C10.0513 10.0098 10.0513 10.0057 10.0513 9.99756C10.0513 9.98942 10.0513 9.97721 10.0513 9.96094C10.0513 9.08203 10.1693 8.23568 10.4053 7.42188C10.6413 6.60807 10.9709 5.85124 11.394 5.15137L11.3696 5.2002C11.7928 4.46777 12.3014 3.81673 12.8955 3.24707C13.4896 2.67741 14.1366 2.18913 14.8364 1.78223L14.8853 1.75781C14.5923 1.69271 14.2749 1.64388 13.9331 1.61133C13.5913 1.57878 13.2495 1.5625 12.9077 1.5625C12.9077 1.5625 12.9036 1.5625 12.8955 1.5625C12.8874 1.5625 12.8833 1.5625 12.8833 1.5625C12.867 1.5625 12.8548 1.5625 12.8467 1.5625C12.8385 1.5625 12.8263 1.5625 12.8101 1.5625C11.8172 1.5625 10.8569 1.69271 9.9292 1.95312C9.00146 2.21354 8.13883 2.57975 7.34131 3.05176L7.39014 3.02734C6.56006 3.51562 5.81136 4.08936 5.14404 4.74854C4.47673 5.40771 3.90706 6.14421 3.43506 6.95801L3.41064 7.00684C2.95492 7.78809 2.59684 8.63851 2.33643 9.55811C2.07601 10.4777 1.9458 11.4339 1.9458 12.4268C1.9458 12.443 1.9458 12.4552 1.9458 12.4634C1.9458 12.4715 1.9458 12.4837 1.9458 12.5C1.9458 12.5163 1.9458 12.5285 1.9458 12.5366C1.9458 12.5448 1.9458 12.557 1.9458 12.5732C1.9458 13.5824 2.07601 14.5467 2.33643 15.4663C2.59684 16.3859 2.96305 17.2445 3.43506 18.042L3.41064 17.9932C3.89893 18.8232 4.47266 19.5719 5.13184 20.2393C5.79102 20.9066 6.52751 21.4762 7.34131 21.9482L7.39014 21.9727C8.17139 22.4284 9.01774 22.7865 9.9292 23.0469C10.8407 23.3073 11.8009 23.4375 12.8101 23.4375C12.8263 23.4375 12.8385 23.4375 12.8467 23.4375C12.8548 23.4375 12.867 23.4375 12.8833 23.4375Z" fill="#9D9D9D"/>
</g>
<defs>
<clipPath id="clip0_2030_210">
<rect width="22.59" height="25" fill="white" transform="matrix(1 0 0 -1 0.379883 25)"/>
</clipPath>
</defs>
</svg>
