<svg width="24" height="24" viewBox="0 0 24 24" fill="none" xmlns="http://www.w3.org/2000/svg">
<g id="nest_remote_comfort_sensor">
<mask id="mask0_2544_598" style="mask-type:alpha" maskUnits="userSpaceOnUse" x="0" y="0" width="24" height="24">
<rect id="Bounding box" width="24" height="24" fill="#D9D9D9"/>
</mask>
<g mask="url(#mask0_2544_598)">
<path id="nest_remote_comfort_sensor_2" d="M11.9998 18.4232C11.2074 18.4232 10.535 18.147 9.98252 17.5945C9.42985 17.042 9.15352 16.3695 9.15352 15.5772C9.15352 14.7849 9.42985 14.1124 9.98252 13.5597C10.535 13.0072 11.2074 12.731 11.9998 12.731C12.7921 12.731 13.4645 13.0072 14.017 13.5597C14.5697 14.1124 14.846 14.7849 14.846 15.5772C14.846 16.3695 14.5697 17.042 14.017 17.5945C13.4645 18.147 12.7921 18.4232 11.9998 18.4232ZM12.0038 17.4232C12.5126 17.4232 12.9468 17.242 13.3065 16.8797C13.6662 16.5174 13.846 16.0818 13.846 15.573C13.846 15.0641 13.6648 14.63 13.3025 14.2705C12.9402 13.9108 12.5046 13.731 11.9958 13.731C11.4869 13.731 11.0527 13.9121 10.693 14.2745C10.3333 14.6368 10.1535 15.0724 10.1535 15.5812C10.1535 16.09 10.3347 16.5243 10.697 16.884C11.0593 17.2435 11.4949 17.4232 12.0038 17.4232ZM4.95352 8.63871L4.22852 7.93671C5.23235 6.95337 6.3856 6.17329 7.68827 5.59646C8.99077 5.01946 10.4279 4.73096 11.9998 4.73096C13.5716 4.73096 15.0088 5.01946 16.3113 5.59646C17.6139 6.17329 18.7672 6.95337 19.771 7.93671L19.046 8.63871C18.119 7.72721 17.051 7.01471 15.842 6.50121C14.633 5.98771 13.3523 5.73096 11.9998 5.73096C10.6473 5.73096 9.36652 5.98771 8.15752 6.50121C6.94852 7.01471 5.88052 7.72721 4.95352 8.63871ZM16.2035 11.429C15.6062 10.8598 14.9633 10.4345 14.2748 10.1532C13.5863 9.87171 12.8279 9.73096 11.9998 9.73096C11.1716 9.73096 10.4174 9.87171 9.73727 10.1532C9.0571 10.4345 8.41002 10.8598 7.79602 11.429L7.07102 10.7272C7.79152 10.0734 8.55785 9.57721 9.37002 9.23871C10.1822 8.90021 11.0588 8.73096 11.9998 8.73096C12.9408 8.73096 13.8164 8.90021 14.6268 9.23871C15.4369 9.57721 16.2023 10.0734 16.9228 10.7272L16.2035 11.429Z" fill="#F9F0EC"/>
</g>
</g>
</svg>
