<svg width="26" height="25" viewBox="0 0 26 25" fill="none" xmlns="http://www.w3.org/2000/svg">
<g id="Icon" clip-path="url(#clip0_2030_222)">
<path id="Vector" d="M21.8496 15.2832C22.5169 15.4622 23.1151 15.7552 23.644 16.1621C24.173 16.569 24.6084 17.0492 24.9502 17.6025L24.9746 17.627C25.235 18.0339 25.4385 18.4814 25.585 18.9697C25.7314 19.458 25.8047 19.9707 25.8047 20.5078V21.875C25.8047 21.875 25.8047 21.8791 25.8047 21.8872C25.8047 21.8953 25.8047 21.8994 25.8047 21.8994C25.8047 22.3226 25.7233 22.7214 25.5605 23.0957C25.3978 23.4701 25.1699 23.7956 24.877 24.0723C24.6003 24.3652 24.2747 24.5931 23.9004 24.7559C23.526 24.9186 23.1273 25 22.7041 25C22.7041 25 22.7 25 22.6919 25C22.6838 25 22.6797 25 22.6797 25H3.92969C3.92969 25 3.92562 25 3.91748 25C3.90934 25 3.90527 25 3.90527 25C3.4821 25 3.08333 24.9186 2.70898 24.7559C2.33464 24.5931 2.00911 24.3652 1.73242 24.0723C1.43945 23.7956 1.21159 23.4701 1.04883 23.0957C0.886068 22.7214 0.804688 22.3226 0.804688 21.8994C0.804688 21.8994 0.804688 21.8953 0.804688 21.8872C0.804688 21.8791 0.804688 21.875 0.804688 21.875V20.5078C0.804688 19.9707 0.87793 19.4499 1.02441 18.9453C1.1709 18.4408 1.38249 17.9769 1.65918 17.5537L1.63477 17.5781C1.99284 17.0247 2.43636 16.5487 2.96533 16.1499C3.4943 15.7511 4.08431 15.4622 4.73535 15.2832H4.75977L7.15234 14.5996C6.68034 14.1276 6.27344 13.6027 5.93164 13.0249C5.58984 12.4471 5.32129 11.8327 5.12598 11.1816L5.10156 11.1328C4.97135 10.7585 4.8737 10.3556 4.80859 9.92432C4.74349 9.493 4.71094 9.04948 4.71094 8.59375C4.71094 8.57747 4.71094 8.56527 4.71094 8.55713C4.71094 8.54899 4.71094 8.53678 4.71094 8.52051C4.71094 7.73926 4.81266 6.98649 5.01611 6.26221C5.21956 5.53792 5.50846 4.8584 5.88281 4.22363L5.8584 4.27246C6.23275 3.62142 6.68034 3.03548 7.20117 2.51465C7.72201 1.99381 8.2998 1.54622 8.93457 1.17188L8.9834 1.14746C9.58561 0.789389 10.2489 0.508627 10.9731 0.305176C11.6974 0.101725 12.4502 0 13.2314 0C13.2477 0 13.2599 0 13.2681 0C13.2762 0 13.2884 0 13.3047 0C13.321 0 13.3332 0 13.3413 0C13.3494 0 13.3617 0 13.3779 0C14.1592 0 14.9119 0.101725 15.6362 0.305176C16.3605 0.508627 17.04 0.797525 17.6748 1.17188L17.626 1.14746C18.277 1.52181 18.863 1.9694 19.3838 2.49023C19.9046 3.01107 20.3522 3.58887 20.7266 4.22363L20.751 4.27246C21.109 4.87467 21.3898 5.53792 21.5933 6.26221C21.7967 6.98649 21.8984 7.73926 21.8984 8.52051C21.8984 8.53678 21.8984 8.54899 21.8984 8.55713C21.8984 8.56527 21.8984 8.57747 21.8984 8.59375C21.8984 9.04948 21.8618 9.493 21.7886 9.92432C21.7153 10.3556 21.6136 10.7747 21.4834 11.1816L21.5078 11.1328C21.2962 11.8164 21.0155 12.4471 20.6655 13.0249C20.3156 13.6027 19.9128 14.1276 19.457 14.5996L21.8496 15.2832ZM13.3047 1.5625C13.3047 1.5625 13.3006 1.5625 13.2925 1.5625C13.2843 1.5625 13.2721 1.5625 13.2559 1.5625C12.6211 1.5625 12.0067 1.64795 11.4126 1.81885C10.8185 1.98975 10.2692 2.22982 9.76465 2.53906L9.78906 2.51465C9.25195 2.82389 8.77181 3.19417 8.34863 3.62549C7.92546 4.0568 7.55924 4.53288 7.25 5.05371L7.22559 5.07812C6.93262 5.56641 6.70068 6.10758 6.52979 6.70166C6.35889 7.29574 6.27344 7.91016 6.27344 8.54492C6.27344 8.54492 6.27344 8.55306 6.27344 8.56934C6.27344 8.58561 6.27344 8.59375 6.27344 8.59375C6.27344 8.59375 6.27344 8.59782 6.27344 8.60596C6.27344 8.6141 6.27344 8.6263 6.27344 8.64258C6.27344 9.27734 6.35889 9.89176 6.52979 10.4858C6.70068 11.0799 6.94076 11.6292 7.25 12.1338L7.22559 12.1094C7.53483 12.6465 7.90511 13.1266 8.33643 13.5498C8.76774 13.973 9.24382 14.3392 9.76465 14.6484L9.78906 14.6729C10.2773 14.9658 10.8185 15.1978 11.4126 15.3687C12.0067 15.5396 12.6211 15.625 13.2559 15.625C13.2721 15.625 13.2843 15.625 13.2925 15.625C13.3006 15.625 13.3047 15.625 13.3047 15.625C13.3047 15.625 13.3088 15.625 13.3169 15.625C13.325 15.625 13.3372 15.625 13.3535 15.625C13.9883 15.625 14.6027 15.5396 15.1968 15.3687C15.7909 15.1978 16.3402 14.9577 16.8447 14.6484L16.8203 14.6729C17.3574 14.3636 17.8376 13.9933 18.2607 13.562C18.6839 13.1307 19.0501 12.6546 19.3594 12.1338L19.3838 12.1094C19.6768 11.6211 19.9087 11.0799 20.0796 10.4858C20.2505 9.89176 20.3359 9.27734 20.3359 8.64258C20.3359 8.64258 20.3359 8.63444 20.3359 8.61816C20.3359 8.60189 20.3359 8.59375 20.3359 8.59375C20.3359 8.59375 20.3359 8.58968 20.3359 8.58154C20.3359 8.5734 20.3359 8.5612 20.3359 8.54492C20.3359 7.91016 20.2505 7.29574 20.0796 6.70166C19.9087 6.10758 19.6686 5.55827 19.3594 5.05371L19.3838 5.07812C19.0745 4.54102 18.7043 4.06087 18.2729 3.6377C17.8416 3.21452 17.3656 2.84831 16.8447 2.53906L16.8203 2.51465C16.332 2.22168 15.7909 1.98975 15.1968 1.81885C14.6027 1.64795 13.9883 1.5625 13.3535 1.5625C13.3372 1.5625 13.325 1.5625 13.3169 1.5625C13.3088 1.5625 13.3047 1.5625 13.3047 1.5625ZM24.2422 21.875V20.5078C24.2422 20.5078 24.2422 20.4997 24.2422 20.4834C24.2422 20.0602 24.173 19.6493 24.0347 19.2505C23.8963 18.8517 23.7051 18.4977 23.4609 18.1885C23.2168 17.8467 22.9198 17.5537 22.5698 17.3096C22.2199 17.0654 21.8415 16.8783 21.4346 16.748H21.4102L17.9922 15.7715C17.3411 16.2109 16.6209 16.5568 15.8315 16.8091C15.0422 17.0614 14.208 17.1875 13.3291 17.1875C13.3291 17.1875 13.325 17.1875 13.3169 17.1875C13.3088 17.1875 13.3047 17.1875 13.3047 17.1875C13.3047 17.1875 13.3006 17.1875 13.2925 17.1875C13.2843 17.1875 13.2803 17.1875 13.2803 17.1875C12.4014 17.1875 11.5672 17.0614 10.7778 16.8091C9.98844 16.5568 9.26009 16.2028 8.59277 15.7471L8.61719 15.7715L5.19922 16.748C4.77604 16.8783 4.38949 17.0654 4.03955 17.3096C3.68962 17.5537 3.39258 17.8467 3.14844 18.1885C2.9043 18.4977 2.71305 18.8517 2.57471 19.2505C2.43636 19.6493 2.36719 20.0602 2.36719 20.4834C2.36719 20.4997 2.36719 20.5078 2.36719 20.5078V21.875C2.36719 21.875 2.36719 21.8831 2.36719 21.8994C2.36719 22.111 2.40788 22.3104 2.48926 22.4976C2.57064 22.6847 2.68457 22.8434 2.83105 22.9736C2.96126 23.1201 3.11995 23.234 3.30713 23.3154C3.4943 23.3968 3.69368 23.4375 3.90527 23.4375C3.92155 23.4375 3.92969 23.4375 3.92969 23.4375H22.6797C22.9076 23.4375 23.111 23.3968 23.29 23.3154C23.4691 23.234 23.6318 23.1201 23.7783 22.9736C23.9248 22.8434 24.0387 22.6847 24.1201 22.4976C24.2015 22.3104 24.2422 22.1029 24.2422 21.875Z" fill="#9D9D9D"/>
</g>
<defs>
<clipPath id="clip0_2030_222">
<rect width="25" height="25" fill="white" transform="matrix(1 0 0 -1 0.804688 25)"/>
</clipPath>
</defs>
</svg>
