<svg xmlns="http://www.w3.org/2000/svg" width="24" height="24" viewBox="0 0 24 24" fill="none">
  <mask id="mask0_323_3272" style="mask-type:alpha" maskUnits="userSpaceOnUse" x="0" y="0" width="24" height="24">
    <rect width="24" height="24" fill="#D9D9D9"/>
  </mask>
  <g mask="url(#mask0_323_3272)">
    <path d="M19.2 20C17.3987 20 15.5926 19.5853 13.7817 18.7558C11.9708 17.9263 10.3026 16.7487 8.77693 15.2231C7.26409 13.6974 6.08973 12.0237 5.25385 10.2019C4.41795 8.38013 4 6.57948 4 4.8V4H8.43848L9.28655 8.0827L6.59037 10.5923C7.04679 11.3833 7.51923 12.1058 8.0077 12.7596C8.49615 13.4135 9.00513 14.0032 9.53463 14.5288C10.0692 15.0891 10.6721 15.6125 11.3433 16.099C12.0144 16.5856 12.7795 17.0654 13.6385 17.5384L16.25 14.8308L20 15.5865V20H19.2ZM6.12115 9.65385L8.21345 7.73463L7.63463 5H5.00578C5.02501 5.76282 5.12757 6.53108 5.31345 7.3048C5.49935 8.07852 5.76858 8.86153 6.12115 9.65385ZM14.5712 17.9884C15.1865 18.2974 15.883 18.5385 16.6606 18.7116C17.4381 18.8846 18.2179 18.9769 19 18.9884V16.3846L16.6115 15.9096L14.5712 17.9884Z" fill="#181D24"/>
  </g>
</svg>