<svg width="24" height="24" viewBox="0 0 24 24" fill="none" xmlns="http://www.w3.org/2000/svg">
<g id="relax">
<mask id="mask0_2544_590" style="mask-type:alpha" maskUnits="userSpaceOnUse" x="0" y="0" width="24" height="24">
<rect id="Bounding box" width="24" height="24" fill="#D9D9D9"/>
</mask>
<g mask="url(#mask0_2544_590)">
<path id="relax_2" d="M11.9749 20.5269L5.38262 13.8844H6.78437L11.9999 19.0999L18.4654 12.6286C18.964 12.1299 19.3486 11.57 19.6191 10.9489C19.8896 10.3277 20.0185 9.69727 20.0056 9.0576C19.9851 7.9076 19.621 6.93293 18.9134 6.1336C18.2057 5.3341 17.3403 4.93435 16.3171 4.93435C15.7748 4.93435 15.247 5.04402 14.7336 5.26335C14.2201 5.48252 13.7755 5.80302 13.3999 6.22485L11.9999 7.74985L10.5749 6.22485C10.1992 5.80302 9.75562 5.4806 9.24412 5.2576C8.73262 5.03444 8.20378 4.92285 7.65762 4.92285C6.78328 4.92285 6.02012 5.22643 5.36812 5.8336C4.71628 6.4406 4.29287 7.20119 4.09787 8.11535H3.08637C3.29287 6.91652 3.81753 5.9181 4.66037 5.1201C5.50337 4.32194 6.50245 3.92285 7.65762 3.92285C8.34212 3.92285 9.00012 4.06202 9.63162 4.34035C10.263 4.61852 10.828 5.02169 11.3269 5.54985L11.9999 6.26135L12.6344 5.58835C13.1422 5.04735 13.715 4.63452 14.3529 4.34985C14.9905 4.06519 15.6453 3.92285 16.3171 3.92285C17.6248 3.92285 18.7322 4.42419 19.6394 5.42685C20.5464 6.42935 20.9999 7.6396 20.9999 9.0576C20.9999 9.83577 20.8454 10.5903 20.5364 11.3211C20.2274 12.0518 19.7831 12.7088 19.2036 13.2921L11.9749 20.5269ZM11.8941 11.4999H3.05762V10.4999H15.8749C16.2864 10.4999 16.6393 10.3528 16.9336 10.0586C17.2278 9.76427 17.3749 9.41135 17.3749 8.99985C17.3749 8.58835 17.2278 8.23544 16.9336 7.9411C16.6393 7.64694 16.2864 7.49985 15.8749 7.49985C15.6287 7.49985 15.398 7.55594 15.1826 7.6681C14.9671 7.78027 14.7895 7.94019 14.6499 8.14785L13.6479 7.87285C13.8697 7.45369 14.1768 7.12002 14.5691 6.87185C14.9615 6.62385 15.3967 6.49985 15.8749 6.49985C16.5672 6.49985 17.157 6.74344 17.6441 7.2306C18.1313 7.71777 18.3749 8.30752 18.3749 8.99985C18.3749 9.69219 18.1313 10.2819 17.6441 10.7691C17.157 11.2563 16.5672 11.4999 15.8749 11.4999H13.8154C13.9935 11.705 14.1313 11.9316 14.2286 12.1796C14.3261 12.4278 14.3749 12.7012 14.3749 12.9999C14.3749 13.6922 14.1313 14.2819 13.6441 14.7691C13.157 15.2563 12.5672 15.4999 11.8749 15.4999C11.3967 15.4999 10.9615 15.3759 10.5691 15.1279C10.1768 14.8797 9.8697 14.546 9.64787 14.1269L10.6499 13.8519C10.7895 14.0595 10.9671 14.2194 11.1826 14.3316C11.398 14.4438 11.6287 14.4999 11.8749 14.4999C12.2864 14.4999 12.6393 14.3528 12.9336 14.0586C13.2278 13.7643 13.3749 13.4114 13.3749 12.9999C13.3749 12.5884 13.231 12.2354 12.9431 11.9411C12.6553 11.6469 12.3056 11.4999 11.8941 11.4999Z" fill="#F9F0EC"/>
</g>
</g>
</svg>
