<svg width="18" height="19" viewBox="0 0 18 19" fill="none" xmlns="http://www.w3.org/2000/svg">
<g id="ri:linkedin-fill">
<path id="Vector" d="M5.20703 4.62184C5.20683 5.01967 5.04861 5.40112 4.76716 5.68228C4.48572 5.96345 4.10411 6.12129 3.70628 6.12109C3.30846 6.1209 2.927 5.96267 2.64584 5.68122C2.36468 5.39978 2.20683 5.01817 2.20703 4.62034C2.20723 4.22252 2.36546 3.84107 2.6469 3.5599C2.92835 3.27874 3.30996 3.1209 3.70778 3.12109C4.10561 3.12129 4.48706 3.27952 4.76822 3.56096C5.04939 3.84241 5.20723 4.22402 5.20703 4.62184ZM5.25203 7.23184H2.25203V16.6218H5.25203V7.23184ZM9.99203 7.23184H7.00703V16.6218H9.96203V11.6943C9.96203 8.94934 13.5395 8.69434 13.5395 11.6943V16.6218H16.502V10.6743C16.502 6.04684 11.207 6.21934 9.96203 8.49184L9.99203 7.23184Z" fill="#F9F0EC"/>
</g>
</svg>
