<svg xmlns="http://www.w3.org/2000/svg" width="66" height="65" viewBox="0 0 66 65" fill="none">
  <g filter="url(#filter0_d_2031_241)">
    <rect x="6.74023" y="3" width="53" height="53" rx="3" fill="#AC835E" shape-rendering="crispEdges"/>
    <rect x="7.24023" y="3.5" width="52" height="52" rx="2.5" stroke="#AC835E" shape-rendering="crispEdges"/>
    <mask id="mask0_2031_241" style="mask-type:alpha" maskUnits="userSpaceOnUse" x="21" y="17" width="24" height="24">
      <rect x="21" y="17" width="24" height="24" fill="#D9D9D9"/>
    </mask>
    <g mask="url(#mask0_2031_241)">
      <path d="M40.6 38L34.3 31.7C33.8 32.1 33.225 32.4167 32.575 32.65C31.925 32.8833 31.2333 33 30.5 33C28.6833 33 27.1458 32.3708 25.8875 31.1125C24.6292 29.8542 24 28.3167 24 26.5C24 24.6833 24.6292 23.1458 25.8875 21.8875C27.1458 20.6292 28.6833 20 30.5 20C32.3167 20 33.8542 20.6292 35.1125 21.8875C36.3708 23.1458 37 24.6833 37 26.5C37 27.2333 36.8833 27.925 36.65 28.575C36.4167 29.225 36.1 29.8 35.7 30.3L42 36.6L40.6 38ZM30.5 31C31.75 31 32.8125 30.5625 33.6875 29.6875C34.5625 28.8125 35 27.75 35 26.5C35 25.25 34.5625 24.1875 33.6875 23.3125C32.8125 22.4375 31.75 22 30.5 22C29.25 22 28.1875 22.4375 27.3125 23.3125C26.4375 24.1875 26 25.25 26 26.5C26 27.75 26.4375 28.8125 27.3125 29.6875C28.1875 30.5625 29.25 31 30.5 31Z" fill="#F9F0EC"/>
    </g>
  </g>
  <defs>
    <filter id="filter0_d_2031_241" x="0.740234" y="0" width="65" height="65" filterUnits="userSpaceOnUse" color-interpolation-filters="sRGB">
      <feFlood flood-opacity="0" result="BackgroundImageFix"/>
      <feColorMatrix in="SourceAlpha" type="matrix" values="0 0 0 0 0 0 0 0 0 0 0 0 0 0 0 0 0 0 127 0" result="hardAlpha"/>
      <feOffset dy="3"/>
      <feGaussianBlur stdDeviation="3"/>
      <feComposite in2="hardAlpha" operator="out"/>
      <feColorMatrix type="matrix" values="0 0 0 0 0.67451 0 0 0 0 0.513726 0 0 0 0 0.368627 0 0 0 1 0"/>
      <feBlend mode="normal" in2="BackgroundImageFix" result="effect1_dropShadow_2031_241"/>
      <feBlend mode="normal" in="SourceGraphic" in2="effect1_dropShadow_2031_241" result="shape"/>
    </filter>
  </defs>
</svg>