<svg width="26" height="25" viewBox="0 0 26 25" fill="none" xmlns="http://www.w3.org/2000/svg">
<g id="Icon" clip-path="url(#clip0_2030_234)">
<path id="Vector" d="M13.2148 0C13.2311 0 13.2433 0 13.2515 0C13.2596 0 13.2718 0 13.2881 0C14.4274 0 15.522 0.150553 16.5718 0.45166C17.6216 0.752768 18.6022 1.17188 19.5137 1.70898L19.4648 1.68457C20.4089 2.25423 21.2633 2.91748 22.0283 3.67432C22.7933 4.43115 23.4525 5.27344 24.0059 6.20117L24.0303 6.25C24.5511 7.12891 24.9621 8.09326 25.2632 9.14307C25.5643 10.1929 25.7148 11.2874 25.7148 12.4268C25.7148 12.443 25.7148 12.4552 25.7148 12.4634C25.7148 12.4715 25.7148 12.4837 25.7148 12.5C25.7148 12.5163 25.7148 12.5285 25.7148 12.5366C25.7148 12.5448 25.7148 12.557 25.7148 12.5732C25.7148 13.7126 25.5643 14.8071 25.2632 15.8569C24.9621 16.9067 24.543 17.8874 24.0059 18.7988L24.0303 18.75C23.4606 19.694 22.7974 20.5485 22.0405 21.3135C21.2837 22.0785 20.4414 22.7295 19.5137 23.2666L19.4648 23.3154C18.5859 23.8363 17.6216 24.2472 16.5718 24.5483C15.522 24.8494 14.4274 25 13.2881 25C13.2718 25 13.2596 25 13.2515 25C13.2433 25 13.2311 25 13.2148 25C13.1986 25 13.1864 25 13.1782 25C13.1701 25 13.1579 25 13.1416 25C12.0023 25 10.9077 24.8494 9.85791 24.5483C8.80811 24.2472 7.82747 23.8281 6.91602 23.291L6.96484 23.3154C6.02083 22.7458 5.16634 22.0825 4.40137 21.3257C3.63639 20.5688 2.97721 19.7266 2.42383 18.7988L2.39941 18.75C1.87858 17.8711 1.46761 16.9067 1.1665 15.8569C0.865397 14.8071 0.714844 13.7126 0.714844 12.5732C0.714844 12.557 0.714844 12.5448 0.714844 12.5366C0.714844 12.5285 0.714844 12.5163 0.714844 12.5C0.714844 12.4837 0.714844 12.4715 0.714844 12.4634C0.714844 12.4552 0.714844 12.443 0.714844 12.4268C0.714844 11.2874 0.865397 10.1929 1.1665 9.14307C1.46761 8.09326 1.88672 7.11263 2.42383 6.20117L2.39941 6.25C2.96908 5.30599 3.63232 4.4515 4.38916 3.68652C5.146 2.92155 5.98828 2.26237 6.91602 1.70898L6.96484 1.68457C7.84375 1.16374 8.80811 0.752768 9.85791 0.45166C10.9077 0.150553 12.0023 0 13.1416 0C13.1579 0 13.1701 0 13.1782 0C13.1864 0 13.1986 0 13.2148 0ZM13.2148 23.3887C13.2311 23.3887 13.2474 23.3887 13.2637 23.3887C13.2799 23.3887 13.2962 23.3887 13.3125 23.3887C14.3053 23.3887 15.2575 23.2585 16.1689 22.998C17.0804 22.7376 17.9349 22.3714 18.7324 21.8994L18.6836 21.9238C19.5137 21.4355 20.2583 20.8618 20.9175 20.2026C21.5767 19.5435 22.1423 18.8151 22.6143 18.0176L22.6387 17.9688C23.0944 17.2038 23.4525 16.3656 23.7129 15.4541C23.9733 14.5426 24.1035 13.5905 24.1035 12.5977C24.1035 12.5814 24.1035 12.5651 24.1035 12.5488C24.1035 12.5326 24.1035 12.5163 24.1035 12.5C24.1035 12.4837 24.1035 12.4674 24.1035 12.4512C24.1035 12.4349 24.1035 12.4186 24.1035 12.4023C24.1035 11.4095 23.9733 10.4574 23.7129 9.5459C23.4525 8.63444 23.0863 7.77995 22.6143 6.98242L22.6387 7.03125C22.1504 6.20117 21.5767 5.45654 20.9175 4.79736C20.2583 4.13818 19.5299 3.57259 18.7324 3.10059L18.6836 3.07617C17.9186 2.62044 17.0804 2.26237 16.1689 2.00195C15.2575 1.74154 14.3053 1.61133 13.3125 1.61133C13.2962 1.61133 13.2799 1.61133 13.2637 1.61133C13.2474 1.61133 13.2311 1.61133 13.2148 1.61133C13.1986 1.61133 13.1823 1.61133 13.166 1.61133C13.1497 1.61133 13.1335 1.61133 13.1172 1.61133C12.1243 1.61133 11.1722 1.74154 10.2607 2.00195C9.34928 2.26237 8.49479 2.62858 7.69727 3.10059L7.74609 3.07617C6.91602 3.56445 6.17139 4.13818 5.51221 4.79736C4.85303 5.45654 4.28743 6.1849 3.81543 6.98242L3.79102 7.03125C3.33529 7.79622 2.97721 8.63444 2.7168 9.5459C2.45638 10.4574 2.32617 11.4095 2.32617 12.4023C2.32617 12.4186 2.32617 12.4349 2.32617 12.4512C2.32617 12.4674 2.32617 12.4837 2.32617 12.5C2.32617 12.5163 2.32617 12.5326 2.32617 12.5488C2.32617 12.5651 2.32617 12.5814 2.32617 12.5977C2.32617 13.5905 2.45638 14.5426 2.7168 15.4541C2.97721 16.3656 3.34342 17.2201 3.81543 18.0176L3.79102 17.9688C4.2793 18.7988 4.85303 19.5435 5.51221 20.2026C6.17139 20.8618 6.89974 21.4274 7.69727 21.8994L7.74609 21.9238C8.51107 22.3796 9.34928 22.7376 10.2607 22.998C11.1722 23.2585 12.1243 23.3887 13.1172 23.3887C13.1335 23.3887 13.1497 23.3887 13.166 23.3887C13.1823 23.3887 13.1986 23.3887 13.2148 23.3887ZM17.7559 16.04C17.821 15.9424 17.9023 15.8691 18 15.8203C18.0977 15.7715 18.1953 15.7389 18.293 15.7227H18.3174C18.3337 15.7227 18.3499 15.7227 18.3662 15.7227C18.3825 15.7227 18.4069 15.7227 18.4395 15.7227C18.5208 15.7227 18.6022 15.7389 18.6836 15.7715C18.765 15.804 18.8382 15.8447 18.9033 15.8936C18.9847 15.9749 19.0498 16.0604 19.0986 16.1499C19.1475 16.2394 19.18 16.3411 19.1963 16.4551C19.1963 16.4714 19.1963 16.4836 19.1963 16.4917C19.1963 16.4998 19.1963 16.512 19.1963 16.5283C19.1963 16.626 19.18 16.7196 19.1475 16.8091C19.1149 16.8986 19.0661 16.9759 19.001 17.041C18.6592 17.4642 18.2686 17.8426 17.8291 18.1763C17.3896 18.5099 16.9258 18.7907 16.4375 19.0186L16.3887 19.043C15.9329 19.2708 15.4365 19.4458 14.8994 19.5679C14.3623 19.6899 13.8089 19.751 13.2393 19.751C13.223 19.751 13.2148 19.751 13.2148 19.751C13.2148 19.751 13.2108 19.751 13.2026 19.751C13.1945 19.751 13.1904 19.751 13.1904 19.751C12.6208 19.751 12.0674 19.6899 11.5303 19.5679C10.9932 19.4458 10.4805 19.2627 9.99219 19.0186L10.041 19.043C9.52018 18.7988 9.04004 18.5099 8.60059 18.1763C8.16113 17.8426 7.77051 17.4642 7.42871 17.041C7.36361 16.9759 7.31478 16.8986 7.28223 16.8091C7.24967 16.7196 7.2334 16.626 7.2334 16.5283C7.2334 16.512 7.2334 16.4998 7.2334 16.4917C7.2334 16.4836 7.2334 16.4714 7.2334 16.4551C7.24967 16.3411 7.28223 16.2394 7.33105 16.1499C7.37988 16.0604 7.44499 15.9831 7.52637 15.918C7.59147 15.8691 7.66878 15.8285 7.7583 15.7959C7.84782 15.7633 7.94141 15.7471 8.03906 15.7471C8.05534 15.7471 8.07161 15.7471 8.08789 15.7471C8.10417 15.7471 8.12044 15.7471 8.13672 15.7471H8.1123C8.22624 15.7471 8.33203 15.7715 8.42969 15.8203C8.52734 15.8691 8.60872 15.9342 8.67383 16.0156C8.95052 16.3574 9.25977 16.6585 9.60156 16.9189C9.94336 17.1794 10.3014 17.3991 10.6758 17.5781L10.7246 17.6025C11.0827 17.7653 11.4692 17.8955 11.8843 17.9932C12.2993 18.0908 12.7347 18.1396 13.1904 18.1396C13.1904 18.1396 13.1945 18.1396 13.2026 18.1396C13.2108 18.1396 13.2148 18.1396 13.2148 18.1396C13.2148 18.1396 13.223 18.1396 13.2393 18.1396C13.6787 18.1396 14.11 18.0908 14.5332 17.9932C14.9564 17.8955 15.3633 17.7572 15.7539 17.5781L15.7051 17.6025C16.112 17.4072 16.4863 17.1794 16.8281 16.9189C17.1699 16.6585 17.471 16.3656 17.7314 16.04L17.7559 16.0156V16.04ZM9.18652 11.6943C9.18652 11.6943 9.18245 11.6943 9.17432 11.6943C9.16618 11.6943 9.16211 11.6943 9.16211 11.6943C8.95052 11.6943 8.74707 11.6536 8.55176 11.5723C8.35645 11.4909 8.18555 11.3688 8.03906 11.2061C7.89258 11.0758 7.77865 10.9131 7.69727 10.7178C7.61589 10.5225 7.5752 10.319 7.5752 10.1074C7.5752 10.0911 7.5752 10.083 7.5752 10.083C7.5752 9.85514 7.61589 9.64355 7.69727 9.44824C7.77865 9.25293 7.89258 9.09017 8.03906 8.95996C8.18555 8.81348 8.35645 8.69547 8.55176 8.60596C8.74707 8.51644 8.95052 8.47168 9.16211 8.47168C9.16211 8.47168 9.16618 8.47168 9.17432 8.47168C9.18245 8.47168 9.18652 8.47168 9.18652 8.47168C9.41439 8.47168 9.62191 8.51644 9.80908 8.60596C9.99626 8.69547 10.1631 8.81348 10.3096 8.95996C10.4561 9.09017 10.5741 9.25293 10.6636 9.44824C10.7531 9.64355 10.7979 9.85514 10.7979 10.083C10.7979 10.083 10.7979 10.0911 10.7979 10.1074C10.7979 10.319 10.7531 10.5225 10.6636 10.7178C10.5741 10.9131 10.4561 11.0758 10.3096 11.2061C10.1631 11.3525 9.99626 11.4705 9.80908 11.5601C9.62191 11.6496 9.41439 11.6943 9.18652 11.6943ZM17.2432 11.6943C17.0153 11.6943 16.8037 11.6536 16.6084 11.5723C16.4131 11.4909 16.2503 11.3688 16.1201 11.2061C15.9736 11.0758 15.8556 10.9131 15.7661 10.7178C15.6766 10.5225 15.6318 10.319 15.6318 10.1074C15.6318 10.0911 15.6318 10.083 15.6318 10.083C15.6318 9.85514 15.6766 9.64355 15.7661 9.44824C15.8556 9.25293 15.9736 9.09017 16.1201 8.95996C16.2503 8.81348 16.4131 8.69547 16.6084 8.60596C16.8037 8.51644 17.0153 8.47168 17.2432 8.47168C17.2432 8.47168 17.2513 8.47168 17.2676 8.47168C17.4792 8.47168 17.6826 8.51644 17.8779 8.60596C18.0732 8.69547 18.236 8.81348 18.3662 8.95996C18.529 9.09017 18.651 9.25293 18.7324 9.44824C18.8138 9.64355 18.8545 9.85514 18.8545 10.083C18.8545 10.083 18.8545 10.0911 18.8545 10.1074C18.8545 10.319 18.8138 10.5225 18.7324 10.7178C18.651 10.9131 18.529 11.0758 18.3662 11.2061C18.236 11.3525 18.0732 11.4705 17.8779 11.5601C17.6826 11.6496 17.4792 11.6943 17.2676 11.6943C17.2676 11.6943 17.2635 11.6943 17.2554 11.6943C17.2472 11.6943 17.2432 11.6943 17.2432 11.6943Z" fill="#9D9D9D"/>
</g>
<defs>
<clipPath id="clip0_2030_234">
<rect width="25" height="25" fill="white" transform="matrix(1 0 0 -1 0.714844 25)"/>
</clipPath>
</defs>
</svg>
