<svg width="24" height="24" viewBox="0 0 24 24" fill="none" xmlns="http://www.w3.org/2000/svg">
<g id="nest_remote_comfort_sensor">
<mask id="mask0_259_657" style="mask-type:alpha" maskUnits="userSpaceOnUse" x="0" y="0" width="24" height="24">
<rect id="Bounding box" width="24" height="24" fill="#D9D9D9"/>
</mask>
<g mask="url(#mask0_259_657)">
<path id="nest_remote_comfort_sensor_2" d="M11.9999 18.4228C11.2076 18.4228 10.5352 18.1465 9.98261 17.594C9.43006 17.0414 9.15378 16.369 9.15378 15.5766C9.15378 14.7843 9.43006 14.1119 9.98261 13.5593C10.5352 13.0068 11.2076 12.7305 11.9999 12.7305C12.7923 12.7305 13.4647 13.0068 14.0173 13.5593C14.5698 14.1119 14.8461 14.7843 14.8461 15.5766C14.8461 16.369 14.5698 17.0414 14.0173 17.594C13.4647 18.1465 12.7923 18.4228 11.9999 18.4228ZM12.004 17.4228C12.5128 17.4228 12.947 17.2416 13.3067 16.8793C13.6663 16.517 13.8461 16.0814 13.8461 15.5726C13.8461 15.0638 13.6649 14.6295 13.3026 14.2699C12.9403 13.9103 12.5047 13.7305 11.9959 13.7305C11.487 13.7305 11.0528 13.9117 10.6932 14.274C10.3336 14.6363 10.1538 15.0719 10.1538 15.5807C10.1538 16.0896 10.335 16.5238 10.6973 16.8834C11.0596 17.243 11.4952 17.4228 12.004 17.4228ZM4.95376 8.63817L4.22876 7.93624C5.23261 6.95291 6.38582 6.17279 7.68838 5.59587C8.99095 5.01894 10.4281 4.73047 11.9999 4.73047C13.5717 4.73047 15.0089 5.01894 16.3115 5.59587C17.6141 6.17279 18.7673 6.95291 19.7711 7.93624L19.0461 8.63817C18.1192 7.72664 17.0512 7.01414 15.8423 6.50067C14.6333 5.98722 13.3525 5.73049 11.9999 5.73049C10.6474 5.73049 9.36659 5.98722 8.15761 6.50067C6.94864 7.01414 5.88069 7.72664 4.95376 8.63817ZM16.2038 11.4286C15.6064 10.8593 14.9634 10.434 14.2749 10.1526C13.5865 9.87119 12.8281 9.73049 11.9999 9.73049C11.1717 9.73049 10.4176 9.87119 9.73743 10.1526C9.0573 10.434 8.41018 10.8593 7.79609 11.4286L7.07108 10.7266C7.7916 10.0728 8.55794 9.57664 9.37011 9.23817C10.1823 8.89972 11.0589 8.73049 11.9999 8.73049C12.941 8.73049 13.8166 8.89972 14.6269 9.23817C15.4371 9.57664 16.2025 10.0728 16.923 10.7266L16.2038 11.4286Z" fill="#181D24"/>
</g>
</g>
</svg>
